<svg xmlns="http://www.w3.org/2000/svg" width="220" height="220"><path d="M39.69 61.991c.051-21.578.208-39.368.35-39.534.14-.165 4.555-.356 9.809-.422l9.553-.122-.088 30.38c-.05 16.71-.157 30.597-.24 30.86-.084.266-2.233 2.328-4.776 4.585l-5.662 5.025c-.57.506-2.603 2.274-4.516 3.928-1.914 1.654-3.714 3.35-4 3.77-.464.679-.511-3.541-.43-38.47z" fill="#eec84c"/><path d="M6.935 160.732c-2.482-2.934-4.903-5.516-5.38-5.737-.841-.39-.847-.418-.174-.85.382-.246.773-.567.868-.714.096-.145 1.19-1.183 2.432-2.301 1.243-1.119 3.564-3.216 5.16-4.661a272.374 272.374 0 0 1 5.056-4.461c2.325-1.98 13.178-11.435 30.072-26.196a14326.584 14326.584 0 0 1 34.932-30.447c5.159-4.48 10.137-8.827 11.062-9.658 2.441-2.192 3.562-2.355 4.991-.726.63.718 1.145 1.443 1.145 1.612 0 .169.683 1.077 1.519 2.017.835.94 1.679 2.044 1.875 2.454.336.705 1.969 2.873 5.726 7.601 2.657 4.093 5.631 7.34 8.261 11.27.005.15.713 1.192 1.571 2.313a121.44 121.44 0 0 1 1.915 2.549c.906 1.307 2.18.614 7.505-4.078 1.88-1.656 6.78-5.947 10.887-9.537 4.109-3.59 9.021-7.89 10.917-9.556a696.286 696.286 0 0 1 5.385-4.688c1.707-1.46 12.885-11.273 19.1-16.767a129.5 129.5 0 0 0 3.996-3.702c.975-.955 2.456-2.24 3.29-2.854 2.445-1.8 4.216-3.342 4.215-3.668 0-.168-.298-.873-.66-1.57-.534-1.028-1.61-1.754-5.74-3.873-3.635-1.865-4.907-2.688-4.466-2.89.34-.156 2.728-.841 5.308-1.523 13.391-3.539 25.072-6.64 26.926-7.148 1.147-.315 3.257-.889 4.69-1.276 1.434-.386 2.802-.88 3.04-1.098.498-.453.601.147.128.744-.168.212-.736 2.223-1.262 4.466-.526 2.243-1.86 7.84-2.963 12.437a4453.865 4453.865 0 0 0-4.162 17.535c-2.673 11.382-2.456 10.707-2.855 8.87-.77-2.103-1.576-4.237-2.158-6.321-.317-1.094-.828-1.904-1.052-2.855-.639-4.015-1.58-3.7-9.427 3.151-4.26 3.72-14.314 12.36-19.07 16.386a877.834 877.834 0 0 0-7.99 6.885c-2.485 2.167-5.455 4.711-6.602 5.652a255.17 255.17 0 0 0-4.75 4.035c-1.466 1.28-4.822 4.16-7.459 6.403a1635.145 1635.145 0 0 0-8.329 7.136c-4.744 4.104-14.68 12.616-17.638 15.111-1.314 1.11-2.68 2.017-3.033 2.017-2.354-2.877-5.22-6.585-7.1-9.823-1.516-1.728-2.789-3.932-4.13-5.506-1.392-1.56 0 0-3.654-5.047 0 0-3.703-6.055-5.929-7.967-2.076-2.74-4.054-4.226-6.48-2.13A893.522 893.522 0 0 1 71.39 115.07a2544.45 2544.45 0 0 0-9.89 8.623c-3.434 3.008-6.64 5.775-7.123 6.149-.83.642-10.865 9.35-14.256 12.372-.86.767-3.518 3.058-5.907 5.093a527.92 527.92 0 0 0-10.761 9.38 174.365 174.365 0 0 1-3.378 2.94c-.727.606-2.704 2.304-4.393 3.771-1.69 1.468-3.333 2.669-3.653 2.669-.32 0-2.612-2.401-5.093-5.335z" fill="#1e899e" stroke="#454c51"/><path d="M39.559 219.257c.117-.359.213-13.308.213-28.775V162.36l.843-.9c.464-.494 1.754-1.686 2.867-2.65 12.506-10.83 15.274-13.266 15.573-13.713.232-.348.315 7.695.25 24.289-.09 23.08-.055 24.889.513 25.935.336.619.77 1.26.966 1.425.195.167 3.482.296 7.304.293 40.43 1.468 77.559.74 105.029-.47.14 1.515-.29 8.725-.278 11.728v10.782h-65.816c-43.84 0-66.127.137-66.747.416-.793.354-.9.318-.717-.24z" fill="#eec84c"/><path d="M75.905 193.015c0-2.333-.425-1.856 8.324-9.349 2.97-2.543 5.525-4.883 5.678-5.199.152-.316.457-.574.677-.574.292 0 .287.134-.018.49-.297.347-.417 2.826-.417 8.562v8.075H75.904v-2.005zM101.084 194.1c-.108-.507-.15-6.322-.093-12.923l.103-12.001 6.775-5.842c3.726-3.213 7.063-6.252 7.415-6.754.56-.798.604-.81.348-.095-.162.448-.293 9.302-.293 19.675v18.86h-7.03c-7.005 0-7.029 0-7.225-.92zM126.288 171.47c.002-12.953.12-23.754.26-24.004.141-.249 2.992-2.793 6.336-5.65 3.344-2.86 6.471-5.627 6.949-6.152l.868-.954v60.31h-14.418l.005-23.55zM151.544 194.765c-.12-.139-.227-15.53-.238-34.2-.022-31.899.016-33.995.593-34.793.338-.468 3.43-3.265 6.869-6.217 3.44-2.952 6.542-5.76 6.894-6.24.595-.81.62-.815.347-.056-.16.449-.292 19.029-.292 41.289v40.473h-6.978c-3.838 0-7.075-.12-7.195-.257z" fill="#53c0ab"/><path d="M189.91 190.157c-5.23-.069-9.962-.191-10.513-.273-1.483-.219-3.18-1.199-3.63-2.097-.227-.452-.305-.851-.2-1.02.096-.152.176-10.16.177-22.236.003-18.859.046-22.02.304-22.394.165-.24 1.072-1.095 2.016-1.9 5.135-4.385 16.673-14.107 17.248-14.533.76-.563.546-.666 2.642 1.278.713.662 1.53 1.39 1.817 1.619.286.229 1.11.987 1.83 1.686.72.698 1.381 1.27 1.47 1.27.09 0 .74.614 1.448 1.364.707.752 1.356 1.366 1.444 1.366.087 0 .612.449 1.167.998 1.347 1.334 4.341 4.07 4.883 4.464.24.173.835.713 1.323 1.2l.888.886.05 12.349c.026 6.791.083 12.49.126 12.663.042.174.063 4.782.045 10.24l-.033 9.925-.762.858c-.844.949-2.07 1.653-3.772 2.166-1.223.369-1.13.368-19.967.12z" fill="#f3b498"/><path d="M197.874 176.997c-.06-.016-.11-.055-.11-.097 0-.04-.056-.092-.124-.11-.068-.02-.125-.071-.125-.115 0-.045-.028-.079-.062-.079-1.095-.963-2.227-1.912-3.184-2.759-.891-.789-1.647-1.435-1.68-1.435-.032 0-.059-.026-.059-.055 0-.032-.17-.198-.38-.372a498.82 498.82 0 0 1-3.001-2.566c-.84-.567-1.284-1.475-2.165-1.476h-.499v-2.864l2.623-.016c1.663-.127 2.904 0 4.14-.596.718-.382 1.617-.963 1.9-1.675.194-.269.45-.667.337-.94-.054-.02-2.06-.035-4.455-.035h-4.358v-2.787h4.16c3.389 0 4.208-.016 4.421-.078.293-.087.377-.199.246-.33a.658.658 0 0 1-.13-.265c-.364-.881-1.19-1.455-2.029-2.004-.32-.196-.633-.265-.98-.387-1.398-.357-2.537-.275-3.457-.275h-2.42l.017-1.394.016-1.394h.655c1.937-.015 9.306-.017 12.557 0l3.739.016v2.76l-2.96.015c-1.628 0-3.035.016-3.125.016-.213 0-.29.164-.132.278.192.173.34.383.452.58.61 1.134.646 1.143 1.213 2.32l.201.136h2.02c1.11 0 2.09.022 2.175.044l.156.04.018 1.129c.012.62 0 1.234-.02 1.363l-.037.235H198.917l-.117.142c-.836 2.596-3.286 4.37-5.279 5.35-.325.102-.7.2-1.018.263-.169.018-.358.078-.42.127-.117.093-.16.405-.057.405.032 0 .534.417 1.116.927.582.51 1.208 1.04 1.392 1.18.183.14.772.635 1.308 1.102.537.466 1.105.953 1.262 1.082.656.664 1.17 1.024 1.782 1.586 0 .045.026.084.059.084.032 0 .254.174.494.387.24.212.465.386.502.386.037 0 .067.038.067.084 0 .045.042.084.093.084.052 0 .093.038.093.084 0 .045-.024.084-.054.084s-.166.106-.303.235c-1.774 1.674-1.736 1.644-1.964 1.6z" fill="#1e899e"/><path d="M8.844 162.573a212.666 212.666 0 0 0-5.289-5.617l-2.43-2.458 2.106-1.887c13.319-11.93 88.804-77.748 89.747-78.253 1.431-.766 2.253-.153 5.265 3.926.836 1.133 4.563 6.143 8.28 11.134 3.718 4.99 7.252 9.802 7.854 10.694 2.539 3.76 3.926 5.346 4.675 5.346.408 0 1.362-.449 2.12-.997 1.562-1.132 49.254-42.828 53.485-46.761a121.729 121.729 0 0 1 5.752-4.952c1.649-1.315 2.998-2.542 2.998-2.725 0-.671-.973-2.19-1.905-2.974-.526-.442-2.39-1.548-4.143-2.457-1.753-.909-3.592-1.925-4.086-2.259l-.899-.607 1.223-.36c.672-.198 9.237-2.493 19.032-5.1 9.795-2.607 18.305-4.947 18.91-5.2 1.018-.425 1.082-.418.86.105-.354.826-2.804 10.798-6.969 28.358-2.019 8.513-3.779 15.367-3.911 15.23-.132-.136-1.07-2.727-2.084-5.757s-1.999-5.7-2.188-5.935c-.802-.994-2.773.25-9.092 5.742-5.877 5.106-67.167 57.621-70.658 60.541-1.763 1.475-3.323 2.681-3.466 2.681-.32 0-3.892-4.58-5.812-7.453-.775-1.159-2.84-4.033-4.59-6.388-1.749-2.354-4.184-5.781-5.41-7.615-5.367-8.025-8.506-10.83-10.78-9.636-.42.221-2.659 2.102-4.976 4.18-4.787 4.296-18.552 16.32-29.28 25.58-12.34 10.65-21.665 18.738-28.078 24.351-8.759 7.667-12.412 10.683-12.942 10.683-.253 0-1.747-1.422-3.319-3.16z" fill="none" stroke="#454c51" stroke-width=".1"/><path d="M39.906 61.449c.058-21.214.227-38.693.376-38.841.148-.149 4.51-.322 9.694-.384l9.424-.115-.2 30.576L59 83.26l-1.879 1.725c-4.006 3.679-16.684 14.807-16.994 14.918-.218.077-.291-12.654-.22-38.455zM39.772 190.865l.085-28.695 9.475-8.286 9.475-8.287.205 2.048c.113 1.126.222 12.111.243 24.412.036 21.093.072 22.429.637 23.482.394.735.92 1.191 1.54 1.335 1.91.444 32.089.975 54.409.958 20.796-.016 31.248-.194 50.849-.869l6.452-.222-.214 4.477c-.118 2.462-.215 7.426-.215 11.03v6.555l-65.865.165c-36.225.09-66.156.261-66.512.378-.645.213-.648.088-.564-28.481z" fill="none" stroke="#454c51"/><path d="M76.144 193.025c0-1.857.017-1.89 1.863-3.667a119.32 119.32 0 0 1 4.294-3.87 349.96 349.96 0 0 0 5.327-4.678c1.592-1.43 2.795-2.334 2.673-2.007-.122.326-.222 4.081-.222 8.344v7.751H76.144v-1.873zM101.664 194.548c-.525-.305-.568-1.263-.568-12.744V169.39l6.054-5.312c3.329-2.922 6.537-5.724 7.129-6.227l1.076-.915v37.962l-6.562-.01c-3.852-.006-6.797-.146-7.13-.34zM126.373 175.02c0-10.934.095-21.648.211-23.81l.212-3.932 5.678-4.95 6.918-6.028 1.24-1.079v59.677h-14.26V175.02zM152 194.597c-.392-.248-.464-5.284-.486-34.102-.026-32.926-.01-33.832.599-34.62.344-.447 1.729-1.79 3.078-2.986 7.743-6.862 10.524-9.3 10.538-9.237.01.038-.027 18.335-.08 40.658l-.098 40.588-6.546-.005c-3.6-.003-6.752-.136-7.005-.296z" fill="none" stroke="#454c51"/><path d="M191.184 190.07c-10.805-.19-12.285-.279-13.352-.801-.66-.323-1.39-.815-1.62-1.094-.338-.406-.398-4.938-.307-23.059.063-12.404.209-22.726.326-22.938.412-.749 19.225-16.628 19.7-16.628.286 0 3.78 3.06 7.73 6.767 1.069 1.004 3.876 3.558 6.237 5.677l4.294 3.851v45.567l-1.07.816c-2.73 2.082-3.676 2.162-21.938 1.842zm8.102-13.965l1.134-.953-1.458-1.288c-.802-.708-2.653-2.28-4.113-3.494-1.46-1.214-2.663-2.293-2.673-2.398-.011-.106.55-.363 1.246-.571 1.553-.466 4.298-2.876 5.03-4.417l.54-1.14h4.506v-2.916l-2.187-.005-2.187-.005-.891-1.616-.892-1.615h6.157v-2.917H186.323v2.917h1.929c2.98 0 4.972.544 6.13 1.676.558.546 1.015 1.121 1.015 1.279 0 .157-1.969.285-4.375.285h-4.375v2.917h4.375c2.406 0 4.375.124 4.375.276 0 .468-1.553 1.983-2.337 2.28-.408.154-2.09.387-3.74.517l-2.997.236v1.389c0 1.167.117 1.42.73 1.582.4.106 2.989 2.163 5.751 4.57 2.763 2.409 5.096 4.375 5.185 4.37.09-.003.673-.436 1.297-.96z" fill="none" stroke="#454c51" stroke-width=".6"/></svg>