<svg xmlns="http://www.w3.org/2000/svg" width="220" height="220"><g transform="translate(0 -832.362)"><path d="M31.369 991.594c0-2.314.056-4.394.122-4.621.065-.228.41-.582.766-.786.643-.37.914-.372 43.533-.372 46.249 0 43.697-.052 44.246.903.114.197.207 2.19.22 4.667l.02 4.323-44.455.046-44.455.047.002-4.207zm6.116.692c1.21-.686 1.309-2.004.214-2.86-1.088-.852-2.389-.54-3.036.728-.312.612-.312.695 0 1.308.582 1.14 1.693 1.464 2.822.824zm5.219.091c.731-.351.992-.8.984-1.696-.008-.77-.256-1.176-.925-1.507-1.266-.627-2.847.228-2.847 1.539 0 .85.263 1.309.95 1.655.697.352 1.12.354 1.838.011zm5.519-.091c1.21-.686 1.308-2.004.213-2.86-.785-.615-1.736-.617-2.516-.007-1.045.817-.93 2.224.236 2.885.789.447 1.254.443 2.067-.018z" fill="#1e899e" stroke="#454c51" stroke-width=".077"/><path d="M33.255 1044.645c-.769-.232-1.464-.798-1.675-1.362-.148-.395-.214-7.75-.214-23.934v-23.364h89.08v46.52l-.447.811c-.624 1.132-1.43 1.486-3.377 1.486h-1.544v-11.994c0-11.884-.003-12-.415-12.486-.98-1.158-2.545-1.37-3.622-.49l-.67.546-.328-.64c-.805-1.57-3.085-1.833-4.255-.492-.208.24-.268.214-.43-.182-.245-.6-1.255-1.382-1.972-1.529-.67-.136-1.554.141-2.177.684l-.448.39v-3.684c0-4.034-.122-4.562-1.227-5.315-.666-.454-1.9-.47-2.69-.037-1.27.698-1.25.521-1.303 10.888l-.05 9.404-.937-1.567c-1.004-1.676-1.578-2.163-2.718-2.301-1.412-.172-2.955 1.363-2.702 2.686.065.338 1.545 3.012 3.288 5.94l3.17 5.326v4.853l-30.97-.018c-17.033-.01-31.148-.072-31.367-.138zm44.203-18.013l.06-.88-7.218.049-7.219.049-.064.618c-.125 1.212-.55 1.148 7.267 1.094l7.114-.049.06-.88zm14.157-3.281v-.926l-14.267.047-14.267.048-.066.435c-.037.24-.013.634.053.878l.12.444h28.427v-.926zm-.04-3.375l.062-.88-14.278.048-14.278.047-.064.618c-.127 1.231-1.248 1.146 14.325 1.093l14.173-.048.06-.88zm-.06-3.373v-.925l-14.105-.047c-11.152-.037-14.138 0-14.264.185-.189.277-.213 1.102-.043 1.513.11.265 1.496.29 14.267.246l14.145-.047v-.924zm1.989-4.993c0-.324-.153-.376-1.243-.425-1.22-.054-1.243-.047-1.243.425s.022.48 1.243.425c1.09-.048 1.243-.1 1.243-.425zm11.83 0c0-.44-.053-.462-1.18-.462-1.194 0-1.53.166-1.329.656.08.194.445.269 1.31.269 1.147 0 1.2-.02 1.2-.463zm-29.867-2.958c.031-1.22.007-2.407-.054-2.635l-.11-.417h-6.04c-5.324 0-6.054.035-6.16.293-.167.402-.154 4.793.014 4.95.074.067 2.87.104 6.214.076l6.078-.049.058-2.219zm19.49-.32c.065-.316-3.315-3.656-3.7-3.656-.105 0-.306.13-.448.288-.22.248.007.535 1.617 2.039 1.808 1.69 2.392 1.996 2.53 1.33zm8.8-1.244c1.763-1.613 2.124-2.235 1.376-2.368-.447-.079-4.059 3.367-3.909 3.73.23.557.728.29 2.532-1.362zm-5.282-.948c0-1.063-.042-1.187-.398-1.187-.34 0-.407.142-.458.986-.036.58.038 1.097.179 1.255.45.505.677.154.677-1.054z" fill="#df5b49"/><path d="M92.73 1034.447c-1.703-2.848-3.151-5.381-3.218-5.63-.194-.717.278-1.752.98-2.15 1.465-.831 2.557-.234 3.989 2.183.556.94 1.078 1.709 1.16 1.71.082 0 .15-4.285.15-9.527 0-9.045.019-9.566.382-10.228.525-.957.885-1.19 1.862-1.21.993-.02 1.816.467 2.122 1.257.12.31.207 2.241.207 4.577 0 2.222.067 4.037.149 4.033.082 0 .39-.332.686-.73.702-.944 1.696-1.165 2.737-.608.793.423 1.193 1.012 1.197 1.761.003.587.316.68.497.147.225-.66 1.26-1.303 2.1-1.303 1.144 0 2.178.887 2.178 1.869 0 .803.312.954.587.282.298-.73 1.156-1.226 2.123-1.226.716 0 .961.099 1.414.57.302.312.607.75.678.97.071.22.138 4.458.15 9.416l.019 9.015H95.825l-3.096-5.178z" fill="#ebe9d3" stroke="#454c51" stroke-width=".077"/><path d="M95.79 1045.727v-5.733h19.089v11.465H95.79v-5.732zm15.915-1.02c1.499-.722.575-2.994-1.062-2.612-.529.124-1.133.928-1.133 1.51 0 .34 1.045 1.382 1.387 1.382.123 0 .486-.126.808-.28z" fill="#271b1b" stroke="#454c51" stroke-width=".077"/><path d="M37.07 1026.822v-.752h1.578l-.018-7.334c-.02-8.05-.037-7.695.378-8.156.415-.461.602-.508 2.056-.51h1.288V1026.072h.848v-10.126c0-9.405.008-10.141.11-10.324.234-.415.088-.405 5.957-.405 5.726 0 5.604-.011 5.898.34.13.151.13.262.148 10.334l.017 10.182h.846V1010.07h1.274c1.41 0 1.583.037 1.978.43.121.12.275.342.341.493.116.26.121.61.123 7.676l.002 7.402h1.565v1.504H37.07v-.752zm13.759-3.18v-2.427h-3.13v4.855h3.13v-2.427zm.325-6.495c.375-.203.392-.281.392-1.756v-1.348l1.343-.022 1.342-.022.19-.223.19-.224v-1.932c0-2.115-.003-2.128-.392-2.34-.148-.08-.456-.102-1.43-.102h-1.243v-1.352c0-1.957.116-1.862-2.282-1.862-1.884 0-1.98.02-2.22.431-.114.196-.127.35-.127 1.497v1.278l-1.3.021c-1.274.021-1.302.025-1.468.188-.28.276-.309.52-.286 2.413l.021 1.76.213.223.213.224 1.303.022 1.303.022v2.675l.254.265.253.266h1.771c1.444 0 1.807-.02 1.96-.103z" fill="#fff" stroke="#454c51" stroke-width=".027"/><path d="M47.764 1014.787v-1.572H44.7v-3.143l1.516-.02 1.517-.018.017-1.59.017-1.59h2.998v3.214h3.064v3.145h-3.064v3.146h-3v-1.573z" fill="#fff" stroke="#454c51" stroke-width=".027"/><path d="M66.058 1010.692l-2.86-.092v-2.27c0-1.82.088-2.303.442-2.435.242-.09 2.941-.164 5.997-.164h5.556v4.888h-2.58c-1.42 0-2.831.04-3.138.084-.307.043-1.845.038-3.417-.013zM63.25 1016.661l.088-.747 14.017-.07 14.017-.072V1017.407H63.161l.089-.747zM63.384 1020.486c-.102-.1-.186-.405-.186-.68 0-.475.613-.497 14.087-.497h14.087v1.358h-13.9c-7.646 0-13.985-.082-14.088-.181zM63.198 1023.383v-.815h28.174v1.629H63.198v-.814zM63.547 1027.276c-.192-.075-.349-.354-.349-.62 0-.446.549-.5 6.993-.683 3.846-.11 7.053-.14 7.127-.068.074.072.051.45-.05.841l-.183.711-6.595-.022c-3.627-.012-6.751-.083-6.943-.158z" fill="none"/><path d="M35.207 991.926c-.578-.623-.588-1.38-.027-2.16.616-.855 1.876-.801 2.614.113.735.91.726 1.066-.107 1.877-.81.79-1.838.86-2.48.17z" fill="red" stroke="#fff" stroke-width=".353"/><path d="M40.604 991.879c-1.442-1.404.4-3.398 2.25-2.435.366.191.54.57.54 1.18 0 1.62-1.653 2.363-2.79 1.255z" fill="#ffc400" stroke="#fff" stroke-width=".353"/><path d="M45.956 991.868c-.76-.689-.778-1.455-.052-2.162a1.773 1.773 0 0 1 2.51 0c.74.721.712 1.766-.062 2.293-.844.576-1.666.531-2.396-.13z" fill="#57c400" stroke="#fff" stroke-width=".353"/><path d="M52.876 866.626c-.832-.382-1.768-.783-2.08-.89-.312-.106-1.094-.49-1.738-.853-.644-.363-1.31-.66-1.48-.66-.17 0-1.129-.395-2.131-.878l-1.822-.878.6-.87c2.434-3.535 9.737-10.042 15.062-13.421a78.21 78.21 0 0 0 2.416-1.584c.657-.47 5.419-3.034 6.547-3.526 3.21-1.4 5.689-2.403 7.037-2.846a20.189 20.189 0 0 1 4.37-1.527 35.224 35.224 0 0 1 3.29-.902c.935-.2 1.874-.459 2.086-.576.211-.118 1.999-.49 3.971-.827 1.973-.336 3.928-.716 4.344-.844 1.22-.375 10.253-.987 14.562-.987 4.295 0 13.336.611 14.562.985.416.127 2.033.441 3.594.7 3.87.64 7.95 1.71 13.238 3.472 1.246.415 6.481 2.537 8.124 3.292 1.67.768 8.019 4.332 9.416 5.286 2.405 1.642 6.666 4.92 7.697 5.92 1.187 1.152 1.805 1.155 3.86.021l1.633-.902-.217 1.115c-.12.614-.488 2.33-.82 3.813-.331 1.484-.733 3.43-.893 4.326-.16.895-.365 1.68-.456 1.746-.214.155-12.62-.323-14.348-.552l-1.322-.176 1.417-.854c.78-.47 1.417-1.08 1.417-1.356 0-.69-6.344-5.468-9.948-7.493-3.306-1.858-8.683-4.31-11.244-5.126-.93-.297-2.416-.788-3.301-1.091-2.41-.826-7.947-1.94-13.69-2.755-11.88-1.685-27.705.643-39.246 5.775-8.534 3.795-14.448 7.96-19.884 14.007-1.295 1.44-2.524 2.616-2.732 2.615-.208-.001-1.059-.316-1.89-.699zM101.426 978.93c-.728-.125-3.164-.437-5.414-.694-2.25-.257-4.782-.65-5.627-.874-1.722-.281-3.515-.554-4.92-1.129-1.287-.212-6.35-1.778-8.73-2.7a16.502 16.502 0 0 1-4.15-1.652c-4.978-1.957-10.618-5.197-15.722-9.032-1.94-1.457-3.726-2.643-3.972-2.637-.246.006-1.043.395-1.77.864-1.314.846-1.326.847-1.456.21-.073-.352.128-1.54.445-2.638.317-1.099.777-3.148 1.02-4.553.245-1.406.509-2.719.587-2.917.108-.275.978-.32 3.65-.187 1.929.096 5.28.258 7.448.361 2.168.103 3.993.315 4.055.47.063.157-.472.604-1.188.995-.716.39-1.304.901-1.305 1.136-.003.536 4.678 4.005 7.925 5.872 3.277 1.885 7.538 3.833 10.78 4.928 1.456.492 2.988 1.01 3.404 1.152 1.856.63 6.201 1.732 7.754 1.964.936.14 2.638.394 3.782.563 1.144.17 2.902.431 3.906.582 2.362.355 12.52.355 14.883 0l3.906-.583c1.144-.17 2.76-.41 3.593-.536 6.436-.967 17.865-5.248 23.32-8.734 2.924-1.87 7.665-5.454 9.137-6.909.872-.86 1.797-1.734 2.057-1.94.26-.207.479-.462.486-.568.007-.106.348-.495.758-.865l.745-.672 1.297.743c.714.409 1.406.743 1.539.743.132 0 .47.16.752.355.28.195 1.966 1.122 3.745 2.059 1.779.937 3.239 1.81 3.244 1.938.01.232-3.468 3.814-5.284 5.441-2.382 2.135-6.49 5.182-9.078 6.735-1.56.936-3.183 1.92-3.606 2.187-.835.527-4.448 2.264-7.286 3.503-3.213 1.404-8.761 3.328-11.614 4.03-1.04.255-2.146.546-2.458.647-1.029.33-4.664.958-8.889 1.535-2.288.313-4.886.69-5.773.837-1.913.317-14.075.294-15.976-.03z" fill="#98d9cd" stroke="#454c51" stroke-width="1.134"/><path d="M179.24 922.504c-.589-.265-1.137-.492-1.687-.72-.17 0-.733-.553-1.278-1.253l-.976-1.252v-9.292c0-8.696.022-9.327.34-9.841.591-.955 1.768-2.186 2.091-2.186.394-.17.825-.317 1.18-.483 3.283-.836 2.722-2.936 2.82-4.863.226-4.43.556-7.008.942-7.342.337-.698.88-1.297 1.284-1.88.236-.55.84-.815 1.235-1.112a8.941 8.941 0 0 1 1.887-1.127c.56-.365 1.233-.558 1.773-.74.986-.14 1.91-.37 2.893-.483 1.233.115 2.53.467 3.623.725.484.313.995.508 1.477.724.88.37 1.472.926 2.282 1.449.346.418.692.986.976 1.373.624.79.879 1.297 1.012 2.015.524 1.833.525 3.759.587 5.28.183 4.574.362 5.386 1.202 5.472.292.03.699.156.905.282.673.215 1.36.442 1.966.71.53.163.785.58 1.147.988.135.126.433.459.663.74l.418.513v9.809c0 8.57-.035 9.82-.278 9.902-.154.05-.28.185-.28.299 0 .442-1.49 1.663-2.415 1.979-.153.052-.515.2-.804.328-7.939-.992-17.26 2.174-24.985-.014zm13.99-23.322c1.206-.373 2.117-1.12 2.874-2.006-.002-.144-.163-.425-.355-.624-.34-.354-.436-.363-4.113-.363-4.141 0-4.445.067-4.445.974 0 .406.324.728 1.591 1.586.188.127 1.157.526 1.754.723.47.155 2.105-.021 2.694-.29zm-3.37-5.097c.931-.634.48-1.92-.674-1.92-.609 0-1.429.568-1.434.994-.003.38.894 1.26 1.289 1.26.181 0 .55-.15.82-.334zm4.688-.029c.543-.446.577-1.135.076-1.57-.557-.481-1.336-.415-1.823.155-.515.603-.51.68.074 1.282.842.553 1.086.315 1.673.133zm2.905-3.078c.853-.91-.153-1.615-2.602-1.827-.75-.062-1.467-.32-2.154-.528-1.895-.854-3.265-2.053-4.02-3.78 0-.54-.604-1.375-.988-1.366-1.57.84-2.299 2.197-2.913 3.627-.102.477-.261.91-.372 1.317 0 .666.59 1.33 1.182 1.33.508 0 1.234-.62 1.234-1.055 0-.613.225-1.36.41-1.36.67.452 1.418 1.163 1.912 1.61.775.464 1.66 1.04 2.512 1.448.12 0 .483.106.805.236.322.13.962.317 1.422.416 1.316.357 2.67.312 3.572-.068z" fill="#eec84c" stroke="#454c51" stroke-width="1.197"/><path d="M52.088 931.043l-.98-.753v-16.31c0-14.017.08-16.435.565-17.214l.565-.906h5.016c2.759 0 5.319-.135 5.69-.3.37-.164.78-.772.91-1.35.635-2.802 6.57-2.506 7.441.37.135.447.441.916.68 1.041.238.126 2.664.231 5.391.234 4.946.001 4.96.002 5.834.85.482.464.884 1.12.894 1.458.009.338.018 7.62.018 16.184 0 11.162-.12 15.728-.425 16.132-.941 1.25-1.78 1.317-16.485 1.317H53.068l-.98-.753zm27.798-2.679l.857-.668v-13.63c0-15.998.093-15.533-3.075-15.38-1.554.074-1.993.219-2.275.752-.732 1.381-1.97 1.643-7.765 1.643H62.22l-1.438-1.228c-1.318-1.127-1.6-1.229-3.385-1.229-1.42 0-2.08.146-2.44.537-.392.429-.494 3.415-.503 14.726l-.012 14.189.823.478c.703.408 2.512.478 12.294.478 11.266 0 11.485-.011 12.327-.668zm-10.563-31.477c.429-.322.677-.935.677-1.668 0-.93-.411-1.091-1.274-1.6-.591-.35-1.066-.245-1.296-.245-.711 0-2.245.383-2.245.832-.715.863-.67 1.466.025 2.297.603.702 1.05.892 2.1.892.735 0 1.64-.228 2.013-.508z" fill="#f89e3d" stroke="#454c51" stroke-width=".814"/><path d="M127.352 942.729c.112-2.443.168-2.594 1.019-2.771 1.035-.406 1.917-1.078 2.845-1.621 1.19-.45 6.204-4.14 6.204-4.566 1.416-1.494 3.598-1.344 4.909-1.35 1.782-.002 3.241.06 3.241.147 0 .96-6.45 6.633-9.712 8.54-1.664 1.27-3.514 2.17-5.334 2.974-1.29.676-2.559 1.229-2.819 1.23-.354 0-.442-.643-.353-2.584zM92.782 946.967a47.348 47.348 0 0 0-2.222-.649 7.004 7.004 0 0 1-1.472-.594c-1.22-.381-2.406-.785-3.436-1.411-3.176-1.418-3.62-1.636-3.973-1.95-.21-.186-1.13-.773-2.047-1.305-1.55-.9-7.29-5.555-7.916-6.42-.215-.298.584-.383 3.541-.38l3.82.001 2.11 1.608c1.16.885 3.078 2.161 4.26 2.837 2.567 1.467 8.346 3.84 9.354 3.84.983.262 1.934.61 2.806.785.912.113 1.658.34 1.658.504 0 .397-4.135 3.629-4.621 3.611-.209-.002-1.047-.223-1.862-.48zM73.556 892.637c-.326-.412-.592-.853-.592-.98 0-.365-1.914-1.633-2.465-1.633-.813 0-.573-.714.621-1.852 1.347-1.438 2.818-2.859 4.105-3.881 1.244-.986 2.694-2.138 3.223-2.56.528-.423 1.24-.906 1.583-1.075.342-.17.976-.485 1.408-.702.78-.392.786-.374.786 2.71v3.105l-2.13 1.754c-2.284 1.882-4.628 4.162-4.875 4.743-.084.197-.36.53-.612.739-.367.304-.58.229-1.052-.368zM136.932 888.488c-1.592-1.352-3.05-2.457-3.24-2.457-.193 0-.347-1.423-.347-3.197 0-3.045.035-3.188.741-3.035.6.26 1.062.595 1.545.873.912.24 8.527 6.501 9.269 7.62.266.403.78 1.165 1.143 1.693l.657.96h-6.872z" fill="#ebe9d3" stroke="#454c51" stroke-width="1.139"/><path d="M47.856 1014.692v-1.63h-3.068v-2.987h3.068v-2.987h2.79v2.987h3.068v2.988h-3.068v3.259h-2.79v-1.63z" fill="#fff" stroke="#fff" stroke-width=".11"/><path d="M198.964 978.969l-4.918-7.88.336-.172c.488-.253 1.327-1.062 1.795-1.734.612-.879.965-2.441.832-3.679-.111-1.027-.143-1.106-1.023-2.515-.874-1.396-.945-1.477-1.81-2.053-1.947-1.298-4.592-1.626-6.266-.778l-.519.264-.794-1.273-.794-1.273 3.222-1.643 3.222-1.643.865.717c1.072.889 1.837 1.644 3.053 3.013 1.134 1.276 3.713 5.34 4.608 7.264 2.798 6.008 4.646 11.63 6.243 18.99l.133.612-1.633.833-1.634.833-4.917-7.88zM200.095 988.026c-.84-.62-5.204-4.393-6.254-5.406-3.223-3.11-5.955-6.08-8.553-9.302-1.24-1.538-3.77-5.655-4.337-7.058-.693-1.717-.909-2.363-1.263-3.79l-.325-1.313 3.158-1.61 3.158-1.611.794 1.273.795 1.273-.484.246c-.592.302-1.474 1.287-1.855 2.071-1.282 2.638-.263 5.92 2.383 7.68 1.791 1.193 3.756 1.528 5.716.976l.924-.26 4.903 7.858 4.904 7.858-1.53.78-1.53.78-.604-.445zM179.301 960.59c-.166-.726-.229-2.783-.132-4.288.097-1.507.99-5.123 1.459-5.907l.247-.415 2.425 3.886 2.425 3.886-3.167 1.616-3.167 1.615-.09-.394zM183.427 953.81l-2.42-3.879.92.123c1.397.186 4.315 1.12 5.983 1.916 1.29.615 3.928 2.193 4.103 2.455.033.05-1.341.804-3.053 1.677l-3.113 1.587-2.42-3.879z" fill="#98d9cd" stroke="#454c51" stroke-width=".479"/><path d="M189.08 969.642c-.783-.302-1.825-1.187-2.306-1.957-1.45-2.324-.35-5.431 2.17-6.129.835-.23 1.912-.274 2.421-.097.342.12.317.272-.692 4.26l-1.046 4.135-.547-.212zM192.218 969.963c-.67.175-1.554.182-2.05.018l-.417-.138 1.022-4.135 1.021-4.136.399.135c1.404.474 2.723 2.007 3.037 3.528.2.975-.092 2.374-.662 3.159-.43.594-1.599 1.373-2.35 1.569zM216.881 984.573c-2.003-4.507-2.503-5.287-4.073-6.36-1.494-1.022-3.949-1.366-6.389-.897-.534.103-.984.121-1 .04-.017-.08-.434-1.357-.926-2.838-1.045-3.14-1.189-2.836 1.379-2.914 3.868-.118 6.206.86 8.403 3.518 1.031 1.249 1.475 2.186 3.347 7.074.767 2.003 1.412 3.67 1.434 3.704.021.034-.254.211-.612.394l-.65.331-.913-2.051z" fill="#98d9cd" stroke="#454c51" stroke-width=".479"/><path d="M215.6 985.776c-1.18-1.892-1.79-2.475-3.013-2.88-1.332-.443-2.766-.359-4.672.273-.834.277-1.001.292-1.035.092-.091-.528-.797-3.444-1.071-4.427-.161-.577-.283-1.109-.271-1.182.012-.072.498-.2 1.08-.282 2.532-.36 4.828.005 6.224.99 1.374.969 2.088 2.1 3.962 6.28l.908 2.027-.59.301-.59.3-.932-1.493zM196.26 997.169c-.152-.165-1.05-1.235-1.997-2.378-2.23-2.694-2.937-3.907-3.114-5.345-.22-1.778.434-3.412 2.06-5.16.912-.98 1.125-1.133 1.265-.91.052.084 1.04.965 2.195 1.958 1.155.992 2.181 1.875 2.28 1.962.147.127-.014.307-.863.961-1.65 1.271-2.516 2.625-2.522 3.94-.004.866.333 1.712 1.297 3.257l.874 1.401-.6.307c-.558.284-.62.285-.876.007z" fill="#98d9cd" stroke="#454c51" stroke-width=".479"/><path d="M193.083 995.832c-4.397-4.751-5.004-5.5-5.684-7.016-.966-2.151-1.05-4.24-.249-6.148.4-.95 1.856-3.124 2.416-3.605.249-.214.322-.208.57.05.156.164 1.046 1.06 1.978 1.99.931.932 1.766 1.787 1.854 1.901.129.166-.016.391-.72 1.123-1.592 1.653-2.345 3.452-2.168 5.178.128 1.253.617 2.313 1.76 3.814 1.024 1.348 3.392 4.189 3.573 4.288.064.035-.179.214-.54.398l-.655.334-2.135-2.307zM204.675 988.122l-.794-1.273 1.586-.81c.873-.444 1.613-.768 1.645-.718.031.05.157.74.278 1.536l.221 1.445-1.07.547-1.072.546-.794-1.273z" fill="#98d9cd" stroke="#454c51" stroke-width=".479"/><path d="M203.123 990.274c-.285-.177-2.356-1.71-2.395-1.773-.011-.018.666-.384 1.506-.813l1.528-.779-4.95-7.864c-2.722-4.325-4.907-7.884-4.857-7.91.05-.026 2.662 4.072 5.803 9.107l5.711 9.153-1.033.527c-.906.462-1.068.505-1.313.352z" fill="#98d9cd" stroke="#454c51" stroke-width=".479"/><rect width="15.808" height="4.351" x="137.696" y="1015.474" ry="0" fill="#98d9cd"/><path fill="#98d9cd" d="M142.89 1011.304h5.42v12.691h-5.42z"/><path d="M170.291 1018.736c4.999.66 8.15-.607 10.754-4.32l1.957-2.79-2.477-1.962c-1.363-1.078-2.544-2.072-2.625-2.207-.156-.26 11.501-1.262 11.94-1.026.457.246 4.301 13.318 3.92 13.327-.202.01-1.343-.764-2.535-1.707-1.192-.943-2.21-1.736-2.262-1.763-.052-.027-.958.933-2.012 2.133-3.717 4.228-7.997 4.583-15.728 1.306l-2.974-1.26 2.042.269z" fill="#98d9cd" stroke="#454c51" stroke-width=".571"/><path d="M143.225 1021.795v-1.981h-5.428v-4.322h5.428V1011.53h5.012V1015.491H153.248v4.322H148.237V1023.776h-5.012v-1.98z" fill="none" stroke="#454c51" stroke-width=".883"/><path d="M91.59 894.489c-1.179-.163-2.087-1.035-2.335-2.242-.092-.448-.094-.773-.095-12.944 0-12.113.003-12.498.093-12.962.157-.805.42-1.229 1.127-1.81.113-.094.71-.366.967-.441.067-.02 1.291-.049 2.721-.064l2.6-.028.027-1.22c.015-.67.046-1.263.07-1.315.073-.158.364-.443.503-.492.39-.136.502-.16.557-.116a.7.7 0 0 0 .231.076c.236.041.557.37.636.651.038.134.067.637.077 1.327l.017 1.113h6.46v-1.095c0-.891.015-1.14.081-1.342.104-.314.393-.61.64-.653a.715.715 0 0 0 .235-.076c.07-.055.523.084.708.217.073.053.193.183.267.29l.135.195.016 1.232.017 1.232 3.24-.013 3.24-.014.026-1.22c.014-.67.045-1.263.068-1.315.073-.165.442-.495.59-.527a1.39 1.39 0 0 0 .25-.083.223.223 0 0 1 .22.001c.06.03.179.067.264.083.227.044.53.362.604.636.037.139.067.649.078 1.337l.017 1.112h2.367c2.243.001 2.957.033 3.156.137.047.026.237.114.421.198.597.27 1.244 1.02 1.366 1.58.02.09.061.195.091.232.081.099.08 26.058-.002 26.22-.031.064-.083.2-.116.303-.086.278-.367.725-.597.952-.393.389-.572.503-1.198.76l-.267.109-14.653.006c-8.059.002-14.773-.01-14.92-.03zm29.42-2.1a.967.967 0 0 0 .23-.226c.09-.133.092-.477.093-12.878v-12.74l-.102-.163c-.195-.311-.123-.304-2.836-.304h-2.457v1.098c0 .603-.019 1.109-.042 1.123-.023.015-.056.11-.072.212-.045.271-.332.537-.695.642-.261.076-.302.076-.503.007-.275-.094-.526-.259-.562-.368-.015-.046-.046-.084-.069-.084-.095 0-.147-.547-.147-1.556v-1.074h-6.512v1.022c0 1.291-.015 1.395-.238 1.687-.15.194-.23.25-.488.337-.3.102-.317.103-.575.024a1.048 1.048 0 0 1-.708-.682c-.065-.2-.08-.449-.08-1.318v-1.07h-6.461l-.017 1.088c-.01.667-.04 1.175-.078 1.313-.086.318-.358.573-.714.67-.259.072-.294.07-.548-.01-.342-.111-.616-.38-.685-.675-.027-.114-.05-.698-.05-1.296v-1.089h-2.482c-2.748 0-2.667-.009-2.859.312l-.103.172v12.716c0 11.771.006 12.727.08 12.855a.935.935 0 0 0 .231.243l.15.105h14.58c14.201 0 14.584-.002 14.72-.091z" fill="#f89e3d" stroke="#454c51" stroke-width=".651"/><path d="M96.693 875.047v-1.555h4.228v3.109h-4.228v-1.554zM104.177 875.047v-1.555h4.228v3.109h-4.228v-1.554zM111.662 875.7c0-.496.014-1.195.031-1.555l.032-.653h4.213v3.109H111.661v-.901zM111.71 880.307v-1.555l2.102.014 2.102.014.013 1.542.013 1.543h-4.23v-1.555zM111.71 885.617v-1.554h4.228v3.109h-4.228v-1.555zM104.177 885.617v-1.554h4.228v3.109h-4.228v-1.555zM104.408 881.872l-.23-.015v-3.104h4.227v3.1l-.4.031c-.376.03-3.087.02-3.597-.014zM96.693 880.308v-1.555h4.228v3.109h-4.228v-1.554zM96.693 885.617v-1.554h4.228v3.109h-4.228v-1.555z" fill="#f89e3d" stroke="#454c51" stroke-width=".651"/><path d="M135.166 902.741v-7.138h16.183v14.276h-16.183v-7.138zm13.927-.011l.013-5.147h-11.643l-.004.483c-.004.477-.002 7.795 0 9.14l.002.695 5.808-.012 5.808-.013.014-5.147z" fill="#f89e3d" stroke="#454c51" stroke-width=".453"/><path d="M140.428 904.32c-1.773-1.561-1.807-1.6-1.663-1.9.06-.123.737-.736 1.065-.963.217-.15.413-.036 1.318.765.83.735.984.82 1.328.733.127-.032.687-.496 2.048-1.697 1.03-.909 1.94-1.694 2.02-1.746.273-.171.386-.13.943.343.56.477.68.65.608.873-.032.098-.906.901-2.805 2.578-2.578 2.278-2.772 2.438-2.973 2.462l-.215.025-1.674-1.473zM153.752 900.692v-.99h16.183v1.98h-16.183v-.99zM153.752 904.79v-.989H164.381v1.98H153.752v-.99zM140.447 922.753c-1.089-.957-1.668-1.5-1.705-1.598-.088-.233.035-.414.61-.899.559-.47.67-.512.934-.346.079.05.49.397.913.773.52.462.819.692.92.71.372.066.406.042 2.379-1.696 1.038-.914 1.95-1.706 2.026-1.759.262-.181.39-.136.956.34.564.472.688.647.615.87-.03.095-.903.896-2.713 2.493-1.468 1.295-2.736 2.4-2.818 2.458-.329.228-.32.234-2.117-1.346z" fill="#f89e3d" stroke="#454c51" stroke-width=".453"/><path d="M135.166 921.163v-7.138h16.183v14.276h-16.183v-7.138zm13.94-.024v-5.135h-11.643l-.004.224c-.005.28-.005 9.407 0 9.776l.004.271h11.643v-5.136zM153.752 919.114v-.99h16.183v1.979h-16.183v-.99zM153.752 923.213v-.99l.548-.002c.394-.002 7.655 0 9.96.002h.12v1.98h-10.628v-.99z" fill="#f89e3d" stroke="#454c51" stroke-width=".453"/><path d="M104.331 956.963c-.214-.03-.811-.195-.943-.26a.588.588 0 0 0-.164-.06c-.148 0-1.157-.603-1.474-.88a6.449 6.449 0 0 1-1.39-1.665c-.237-.416-.58-1.21-.58-1.342 0-.036-.016-.078-.036-.092-.02-.013-.056-.137-.08-.274a1.346 1.346 0 0 0-.077-.294c-.04-.057-.166-1.226-.166-1.543 0-.315.126-1.486.166-1.543a1.14 1.14 0 0 0 .072-.263c.022-.12.067-.277.1-.348a.65.65 0 0 0 .06-.203c0-.04.017-.086.037-.1.021-.015.058-.114.082-.22.023-.107.056-.194.072-.194.016 0 .04-.053.055-.12.014-.065.057-.197.095-.293.163-.41.194-.493.194-.52 0-.035.138-.4.207-.545.028-.06.064-.173.078-.25.015-.078.04-.142.058-.142.017 0 .043-.054.057-.12.015-.065.05-.178.078-.25.03-.071.097-.257.152-.413.108-.306.127-.358.243-.652l.156-.4c.044-.113.08-.217.08-.233 0-.015.025-.09.055-.165.03-.076.1-.265.155-.42.097-.272.132-.366.26-.696.034-.084.106-.28.16-.435.056-.155.126-.344.156-.42a.907.907 0 0 0 .055-.168c0-.017.06-.177.134-.356.074-.179.134-.335.134-.347 0-.013.025-.084.055-.16.03-.075.1-.264.155-.42.056-.155.126-.344.156-.419a.942.942 0 0 0 .055-.166c0-.015.044-.14.099-.276a32.779 32.779 0 0 0 .243-.626c.043-.112.079-.216.079-.23 0-.027.104-.302.232-.612.04-.097.074-.196.074-.22 0-.022.034-.118.076-.212a.875.875 0 0 0 .077-.245c0-.04.013-.08.029-.089.016-.007.08-.16.142-.34.061-.18.133-.366.158-.414a.995.995 0 0 0 .072-.228c.014-.078.041-.141.06-.141.02 0 .036-.025.036-.055s.024-.106.053-.17c.03-.063.075-.19.1-.282.027-.092.061-.187.077-.21a.693.693 0 0 0 .057-.153c.034-.13.155-.457.226-.61.028-.059.063-.166.078-.238a.434.434 0 0 1 .053-.152c.014-.013.067-.14.117-.283.05-.144.124-.343.163-.444.038-.1.07-.194.07-.209 0-.033.14-.4.208-.543.028-.06.063-.173.078-.25.014-.078.04-.142.058-.142.017 0 .042-.054.056-.12.036-.168.486-1.185.525-1.185.017 0 .032-.02.032-.046 0-.08.4-.66.673-.976.344-.397.56-.608.818-.8.116-.086.22-.166.23-.179.06-.069.693-.433.755-.434.026 0 .048-.018.048-.039 0-.02.053-.05.118-.065.064-.014.172-.054.239-.087.467-.236 1.071-.347 1.88-.347.622 0 1.348.094 1.453.187.021.019.107.049.192.066.084.017.17.047.19.065a.486.486 0 0 0 .135.067c.147.05.42.185.63.314.106.064.243.147.307.184a.965.965 0 0 1 .133.09c.011.012.097.08.19.152.095.071.207.16.249.195.09.078.935 1.038 1.008 1.147.161.238.398.675.528.971.081.187.16.35.174.362a.44.44 0 0 1 .053.152c.015.072.05.18.077.239.073.16.203.684.232.935.013.12.043.245.067.279.059.084.059 1.968 0 2.052a.984.984 0 0 0-.07.3c-.025.225-.303 1.232-.366 1.327a.676.676 0 0 0-.057.152c-.027.103-.081.25-.256.696-.115.295-.134.346-.242.653-.096.272-.13.362-.26.696-.033.083-.105.279-.16.435-.11.31-.13.365-.243.652-.042.108-.122.323-.177.478-.055.156-.116.322-.135.37-.019.048-.08.214-.134.37-.055.155-.123.341-.15.413-.029.072-.064.18-.08.24a.618.618 0 0 1-.058.151c-.048.07-.381 1.018-.381 1.085 0 .034-.013.067-.029.075-.016.007-.07.132-.12.276-.05.143-.125.349-.167.456l-.255.661a1.89 1.89 0 0 0-.08.232c0 .014-.042.133-.095.264-.053.13-.096.262-.096.291 0 .086-.228.697-.289.773a.26.26 0 0 0-.056.11c0 .022-.044.138-.096.257a1.46 1.46 0 0 0-.094.263c0 .025-.035.122-.077.216a.874.874 0 0 0-.076.245c0 .04-.013.08-.03.088-.016.007-.08.162-.14.341-.062.18-.124.346-.138.37a1.439 1.439 0 0 0-.075.217.823.823 0 0 1-.073.196c-.036.033-.233.602-.233.675 0 .035-.015.064-.034.064-.019 0-.046.054-.06.118a4.157 4.157 0 0 1-.228.622c-.028.06-.063.172-.078.25-.014.078-.04.141-.058.141-.017 0-.042.054-.056.12a2.277 2.277 0 0 1-.095.293c-.164.413-.194.494-.194.522 0 .029-.03.11-.194.522-.038.096-.08.228-.095.294-.014.066-.039.12-.055.12-.017 0-.042.053-.056.118-.053.238-.54 1.384-.633 1.49-.01.013-.079.12-.152.24-.188.308-.282.43-.654.848-.356.4-.447.485-.837.783a5.798 5.798 0 0 1-1.32.732c-.661.246-.846.279-1.664.291-.431.007-.844.004-.918-.007zm8.275-12.88c.206-.588.284-.796.35-.938a.641.641 0 0 0 .056-.166c0-.023.06-.188.134-.367.074-.179.135-.34.135-.357 0-.017.044-.13.096-.249.051-.12.094-.251.094-.293 0-.042.016-.076.035-.076.018 0 .045-.054.06-.12.014-.066.05-.178.078-.25.15-.378.21-.542.21-.57 0-.016.033-.11.073-.208.19-.463.233-.581.233-.65 0-.04.015-.073.034-.073.019 0 .046-.053.06-.12.015-.065.05-.178.078-.25.205-.519.249-.64.249-.697 0-.035.015-.063.034-.063.019 0 .055-.098.08-.218.026-.12.062-.217.08-.217.02 0 .035-.035.035-.078a.38.38 0 0 1 .052-.163.889.889 0 0 0 .082-.194c.036-.14.157-.465.23-.624a.642.642 0 0 0 .057-.165c0-.024.044-.154.099-.29.158-.396.162-.41.243-.68.043-.142.089-.358.103-.479a.88.88 0 0 1 .067-.28c.059-.085.059-1.708 0-1.792a.894.894 0 0 1-.067-.279c-.027-.236-.179-.774-.225-.797-.016-.007-.029-.046-.029-.083 0-.156-.328-.819-.609-1.23-.302-.442-1.053-1.217-1.179-1.217a.06.06 0 0 1-.054-.039c-.018-.054-.682-.44-.757-.44a.156.156 0 0 1-.1-.038c-.056-.06-.544-.218-.84-.273-.343-.064-1.26-.064-1.604 0-.295.055-.783.213-.84.273a.152.152 0 0 1-.096.039c-.07 0-.721.37-.808.459-.033.034-.074.062-.091.062-.037 0-.47.4-.691.639-.26.28-.783 1.07-.783 1.183 0 .023-.013.048-.03.056-.016.007-.077.142-.136.297-.058.156-.129.332-.157.392-.028.06-.063.172-.077.25-.015.077-.04.141-.058.141-.017 0-.042.054-.057.12-.014.065-.06.207-.103.315-.042.108-.092.235-.109.283-.017.048-.066.175-.11.282-.042.108-.088.25-.102.316-.015.066-.041.13-.059.143-.018.013-.052.106-.076.206a.763.763 0 0 1-.069.205 1.65 1.65 0 0 0-.116.283c-.05.143-.122.34-.16.436-.037.097-.08.229-.094.294-.014.065-.041.118-.06.118-.019 0-.034.03-.034.068 0 .037-.045.18-.1.315-.172.43-.206.521-.206.552a.917.917 0 0 1-.054.168c-.14.351-.214.547-.214.572 0 .015-.044.138-.098.274a34.893 34.893 0 0 0-.244.626 1.831 1.831 0 0 0-.078.232c0 .016-.025.09-.055.166-.03.075-.135.352-.233.615a48.79 48.79 0 0 1-.234.622c-.077.195-.083.36-.014.402.17.104.377.206.478.234.063.018.123.046.134.062.01.016.123.076.249.133.126.057.302.14.39.185.088.044.17.08.184.08.012 0 .104.041.202.091l.626.317a.89.89 0 0 0 .164.071c.023 0 .191.08.505.242a.712.712 0 0 0 .146.063c.014 0 .123.05.242.112a26.976 26.976 0 0 0 .55.277c.1.049.191.089.205.089a.7.7 0 0 1 .146.063c.066.034.232.114.369.178.136.064.265.131.286.15a.894.894 0 0 0 .192.088c.084.03.17.068.191.084.021.016.167.085.325.153.328.141.491.22 1.035.5.096.048.203.089.237.089.034 0 .07.016.081.035.011.02.232.132.49.25.259.117.48.225.49.24.01.015.088.053.172.084.084.031.22.091.302.133.083.042.168.068.192.058.023-.01.108-.209.19-.442zM126.054 951.914a4.765 4.765 0 0 1-.218-.105 1.108 1.108 0 0 0-.185-.082.698.698 0 0 1-.146-.062c-.436-.224-.569-.286-.616-.286-.029 0-.058-.014-.065-.032-.007-.018-.116-.08-.243-.137a14.124 14.124 0 0 1-.65-.312c-.084-.042-.265-.13-.401-.192a12.381 12.381 0 0 1-.37-.177.711.711 0 0 0-.145-.063c-.014 0-.106-.041-.205-.091l-.625-.317a.86.86 0 0 0-.166-.07.682.682 0 0 1-.147-.063c-.432-.222-.568-.286-.611-.286a.134.134 0 0 1-.085-.04 1.701 1.701 0 0 0-.285-.154c-.137-.063-.3-.142-.364-.175a1.449 1.449 0 0 0-.22-.089c-.057-.016-.105-.045-.105-.064 0-.018-.046-.047-.104-.063-.094-.027-.233-.092-.57-.266a.71.71 0 0 0-.146-.062c-.014 0-.106-.041-.205-.091l-.625-.317a.897.897 0 0 0-.165-.07c-.023 0-.19-.081-.504-.243a.712.712 0 0 0-.146-.062 1.81 1.81 0 0 1-.243-.113 26.243 26.243 0 0 0-.55-.276c-.099-.05-.19-.09-.203-.09-.013 0-.122-.05-.241-.112-.12-.062-.252-.13-.294-.15l-.25-.124c-.096-.047-.22-.1-.276-.115-.17-.049-.19-.117-.085-.293.052-.087.094-.169.094-.182 0-.013.03-.06.067-.106.037-.045.11-.145.162-.224.128-.192.591-.725.804-.925.206-.195.204-.192.42-.357a1.68 1.68 0 0 0 .193-.16c.026-.04.926-.557.968-.557a.641.641 0 0 0 .153-.062c.184-.093.65-.24.855-.271a.615.615 0 0 0 .237-.076c.075-.067 1.808-.067 1.882 0 .03.028.14.063.245.08.195.03.597.163.803.265.063.031.166.071.23.089a.376.376 0 0 1 .133.058c.01.014.173.114.362.221.188.108.416.26.507.337.09.078.175.142.189.142.021 0 .235.198.563.522.06.06.237.275.393.478l.34.439c.03.038.056.082.056.1 0 .03.153.291.194.33.05.049.494 1.066.494 1.133a.8.8 0 0 0 .054.188c.092.234.21.738.237 1.009.014.142.042.283.062.312.047.069.046 1.74-.001 1.809-.02.028-.049.167-.064.309-.04.377-.049.394-.173.343zM119.705 956.964c-.204-.028-.855-.199-.899-.236a1.126 1.126 0 0 0-.258-.088c-.12-.03-.22-.071-.22-.091 0-.02-.021-.037-.047-.037s-.134-.049-.24-.108a1.038 1.038 0 0 0-.238-.108c-.027 0-.048-.017-.048-.037 0-.02-.06-.062-.134-.095-.074-.033-.134-.075-.134-.095 0-.02-.017-.035-.039-.035-.039 0-.297-.181-.434-.305a7.07 7.07 0 0 1-1.277-1.457c-.25-.369-.773-1.508-.774-1.683a.6.6 0 0 0-.055-.176 1.373 1.373 0 0 1-.081-.316c-.014-.108-.04-.206-.055-.217-.016-.013-.05-.222-.074-.467a39.68 39.68 0 0 0-.086-.788 1.769 1.769 0 0 1 0-.565 9.46 9.46 0 0 0 .079-.682 4.89 4.89 0 0 1 .064-.533c.033-.098.12-.094.304.013.083.047.18.086.219.086.037 0 .068.018.068.04 0 .02.047.051.105.067.058.016.174.066.258.11.421.222.507.262.564.262.033 0 .067.014.074.032.007.018.116.08.242.137.126.057.32.15.431.206.112.057.226.103.255.103.03 0 .06.015.066.032.007.018.116.08.242.137.127.057.302.14.39.185.089.045.171.08.184.08.024 0 .265.12.538.266a.707.707 0 0 0 .22.083c.035 0 .064.017.064.039 0 .021.048.052.105.068.058.016.157.056.22.089.455.232.563.282.61.282.03 0 .059.015.066.034.007.018.142.09.3.16.157.07.304.14.325.157.02.016.107.054.191.085.084.03.162.067.172.082.01.015.122.073.249.13.126.057.301.14.39.185.088.044.17.08.183.08.013 0 .105.042.203.091l.625.317a.86.86 0 0 0 .167.071c.014 0 .08.028.147.062.432.222.568.286.611.286.027 0 .065.018.085.04.02.021.148.091.285.155.137.063.303.143.37.178a.696.696 0 0 0 .145.062c.014 0 .123.05.243.113a26.085 26.085 0 0 0 .55.276c.099.05.2.09.226.09.03 0 .024.028-.017.08a.284.284 0 0 0-.064.126c0 .026-.013.054-.028.062a1.196 1.196 0 0 0-.15.214 4.875 4.875 0 0 1-.59.776c-.297.337-.528.569-.567.569-.015 0-.06.034-.101.076-.108.11-.391.315-.437.315-.021 0-.039.016-.039.036 0 .042-.595.382-.74.423-.056.016-.101.043-.101.06 0 .018-.095.057-.21.086-.115.03-.218.07-.229.089-.01.02-.101.049-.201.065s-.269.06-.374.096c-.138.049-.408.07-.975.08a13.56 13.56 0 0 1-.918-.005z" fill="#f89e3d" stroke="#454c51" stroke-width=".915"/><path d="M22.173 907.772c-.14 0-1.446-.644-1.742-.859-.944-.684-1.666-1.441-2.137-2.24-.185-.314-.35-.606-.366-.648-.017-.043-.097-.22-.18-.395-.31-.426-.318-.836-.443-1.156-.102-.472-.394-.714-.682-1.064-.865-.767-1.389-2.147-1.636-2.977.024-.12.052-.576.074-.74-.02-.56.003-.746.131-1.003.225-.455.422-.596.857-.612.479-.018.628-.184.548-.613-.153-.832-.191-1.013-.284-1.364-.135-.51-.149-3.907-.017-4.059.096-.544.44-.965.611-1.205a3.81 3.81 0 0 1 .599-.378c.746-.379 1.147-.708 1.468-1.207.512-.795 1.307-1.288 2.404-1.492 1.05-.194 2.861-.284 3.935-.195.987.083 2.185.274 2.456.392.087.038.285.092.438.12.154.028.315.077.36.109.043.031.169.083.278.114.11.03.39.137.62.236.232.1.457.18.5.18.042 0 .077.035.077.076 0 .042.041.076.092.076.14 0 .946.588 1.286.939.374.385.792.982.934 1.333.059.146.134.3.166.341.033.042.086.212.117.379.032.166.084.337.117.378.11.14.164 1.356.086 1.932-.133.976-.251 1.622-.326 1.78-.06.128-.239 1.484-.239 1.815 0 .167.232.343.452.343.334 0 .636.227.822.617.145.305.167.46.134.917-.097 1.328-.378 2.603-.644 2.92-.167.2-.585.587-.951.882-.204.164-.371.343-.371.397 0 .055-.035.1-.077.1-.042 0-.118.144-.17.321-.24.836-.833 2.219-1.03 2.405-.022.02-.169.225-.327.454-.311.453-1.208 1.344-1.71 1.7a5.567 5.567 0 0 0-.355.265c-.06.064-1.387.687-1.46.687-.036 0-.22.066-.409.148-.19.082-.502.171-.694.198-.191.027-.428.097-.525.154-1.03.17-1.902-.116-2.787-.5zM22.345 928.48c-1.27-.045-5.902-.559-6.261-.695a6.238 6.238 0 0 0-.638-.136c-1.062-.185-1.88-.352-2.034-.415a4.608 4.608 0 0 0-.638-.148 4.483 4.483 0 0 1-.638-.15 14.455 14.455 0 0 0-.877-.27c-.395-.11-.831-.25-.97-.308a1.387 1.387 0 0 0-.343-.105c-.05 0-.26-.07-.466-.157a426.39 426.39 0 0 0-.614-.257 4.635 4.635 0 0 0-.439-.155c-.11-.03-.235-.081-.279-.112-.044-.03-.403-.218-.798-.417-.394-.2-.735-.386-.757-.416a.31.31 0 0 0-.12-.084c-.628-.239-1.163-.827-1.386-1.525-.162-.506-.174-3.604-.016-4.375.232-1.138 1.01-2.178 2.441-3.261.663-.502 1.776-1.284 1.828-1.284.02 0 .196-.102.39-.227.196-.125.377-.227.404-.227.026 0 .162.23.3.511.14.281.275.528.301.55.027.02.092.132.146.249.088.189.078.23-.086.379-.418.379-.915 1.153-1.091 1.7a4.72 4.72 0 0 1-.163.436c-.248.529-.39 2.327-.24 3.042.043.201.112.536.154.745.107.537.317 1.264.41 1.419a.57.57 0 0 1 .078.227c.002.276.619 1.213.985 1.497.232.18.3.19 1.364.206.98.014 1.161-.004 1.45-.136.373-.17.747-.627.747-.911 0-.104.043-.23.096-.28.074-.07.074-.111 0-.182a.426.426 0 0 1-.096-.27c0-.323-.274-.686-.712-.945-.408-.242-1.166-.227-1.575.031l-.305.193-.147-.463c-.222-.701-.4-1.697-.396-2.204.016-1.678.792-2.992 1.875-3.175.334-.056 1.34.087 1.34.191 0 .038.043.068.095.068.16 0 .717.393 1.183.833.44.416.936 1.068 1.129 1.484.056.121.12.237.143.258.05.046.317.73.376.965.03.121 0 .182-.106.213-.862.253-1.26.91-1.063 1.75.153.654.745 1.086 1.488 1.086.508 0 .678-.089 1.36-.716.641-.589.777-.907.716-1.675-.025-.315-.08-.612-.122-.662-.042-.05-.103-.21-.135-.355-.032-.146-.085-.3-.118-.34a1.095 1.095 0 0 1-.116-.304c-.073-.29-.685-1.506-.775-1.54-.037-.014-.067-.06-.067-.104 0-.138-.686-.992-1.169-1.454-.522-.5-1.297-1.07-1.566-1.149a.595.595 0 0 1-.217-.103c-.138-.174-1.064-.404-1.769-.44l-.772-.039-.1-.236a1.26 1.26 0 0 0-.146-.274c-.033-.029-.428-.75-.624-1.143-.023-.045 3.004-1.508 3.119-1.508.034 0 .214-.066.4-.146.562-.243.76-.27.822-.108.066.173.524.813.606.847.033.014.06.06.06.1 0 .064.356.56.48.67.024.021.173.226.331.455.258.372.99 1.308 1.382 1.763.044.05.238.297.432.547.193.25.4.505.46.568.06.062.332.385.605.718a29.833 29.833 0 0 0 .816.962c.307.385.783.895.836.895.035 0 .084-.11.108-.246.025-.136.098-.519.163-.852.065-.333.177-.947.248-1.364.071-.416.163-.862.205-.99.14-.433.085-.64-.324-1.22-.42-.596-.468-.796-.289-1.186.06-.132.171-.4.246-.599l.136-.36h1.34c.975 0 1.361.026 1.421.095.045.052.125.248.177.436.053.187.124.374.158.416.035.042.087.183.117.314.045.202-.005.325-.327.796-.31.453-.38.62-.38.897-.002.427.178 1.653.271 1.856.039.083.11.441.16.795.094.667.23 1.136.33 1.136.032 0 .132-.094.223-.208.09-.115.199-.248.24-.296.043-.048.375-.44.738-.87l.725-.86c.231-.273 1.635-2.022 1.733-2.158.097-.136.408-.534.857-1.099.033-.042.168-.229.3-.416.131-.188.267-.375.301-.417.34-.414.702-.923.742-1.044.043-.128.099-.142.399-.103a2 2 0 0 1 .49.118c.078.04.357.163.62.272.79.33 2.949 1.359 2.977 1.42.015.03.065.056.11.056.047 0 .2.069.343.152.256.15.258.157.18.512-.044.197-.106.393-.14.435-.033.041-.104.254-.158.473-.054.22-.13.417-.17.44-.04.024-.072.093-.072.156 0 .128-.188.545-.654 1.445-.319.615-.324.62-.571.568-.138-.029-.699-.051-1.247-.05-.79.004-1.047.03-1.236.132-.132.071-.278.13-.325.13-.132 0-.901.568-1.194.88-.23.245-.353.45-.783 1.31-.116.23-.12 1.816-.006 2.06.457.969.986 1.655 1.49 1.932.946.518 1.73.68 2.726.56 1.77-.213 3.068-1.568 3.215-3.358.043-.525-.145-1.27-.468-1.855l-.222-.402.515-.94c.283-.517.515-.979.515-1.025 0-.047.051-.193.113-.324.301-.636.434-.964.482-1.197.06-.289.205-.594.282-.594.028 0 .234.127.457.284.223.156.485.335.583.397.413.264 1.267.94 1.833 1.453.274.247.876 1.013.876 1.113 0 .04.028.084.063.098.135.054.428.888.507 1.443.046.321.07 1.378.056 2.348l-.028 1.763-.226.416c-.303.56-.422.686-.89.942-.22.12-.417.243-.439.272-.022.03-.12.077-.219.107a.866.866 0 0 0-.279.143c-.088.08-1.424.719-1.855.888-.088.034-.334.133-.548.219-.214.086-.424.156-.467.156-.042 0-.19.048-.329.106-.354.148-1.58.5-1.742.5-.074 0-.154.03-.177.066-.024.036-.268.105-.543.154a4.895 4.895 0 0 0-.66.154c-.154.063-.912.217-2.074.42-.307.055-.558.106-.558.116 0 .023-1.907.288-2.752.382-.373.041-1.109.124-1.635.185-.934.108-4.547.195-5.982.144z" fill="#eec84c" stroke="#454c51" stroke-width="1.078"/><path d="M33.854 921.86c-.88-.25-1.37-1.345-.943-2.105.354-.63.79-.889 1.485-.881.512.005.858.149 1.208.503.204.207.42.744.42 1.047 0 .4-.305.919-.736 1.252-.298.23-.971.317-1.434.185z" fill="#eec84c" stroke="#454c51" stroke-width="1.078"/></g></svg>