<svg xmlns="http://www.w3.org/2000/svg" width="220" height="220"><path d="M159.63 215.574c-8.31-.787-16.607-3.655-23.758-8.21-11.777-7.505-19.702-19.011-22.833-33.153-.62-2.794-.72-4.223-.72-10.133 0-7.756.433-10.536 2.599-16.658 2.748-7.77 6.553-13.697 12.64-19.689 7.696-7.577 15.89-11.921 26.925-14.274 4.92-1.05 14.78-1.056 20.001-.015 21.018 4.193 37.06 19.804 41.426 40.312 1.336 6.279 1.316 14.835-.05 21.04-4.376 19.873-19.772 35.256-39.688 39.651-3.614.798-9.863 1.513-12.494 1.43-.715-.022-2.537-.157-4.049-.3zm14.13-8.256c12.422-2.721 22.676-9.913 29.162-20.456 10.789-17.533 7.71-40.15-7.416-54.478-8.532-8.082-19.173-12.256-31.177-12.23-12.105.026-22.815 4.413-31.402 12.863-6.603 6.497-10.712 14.115-12.548 23.26-.847 4.215-.77 12.038.16 16.342 4.01 18.58 18.258 32.07 37.123 35.152 3.88.633 12.208.4 16.098-.453z" fill="#df5b49" stroke="#454c51" stroke-width=".7"/><path d="M17.72 202c-6.02-1.628-11.005-6.743-12.42-12.743-.44-1.869-.487-10.696-.411-76.77l.085-74.659.826-2.085c1.744-4.401 4.72-7.684 8.692-9.59 3.696-1.773 5.092-1.914 19.02-1.92l12.601-.005v9.6H33.814c-13.884 0-14.669.1-16.795 2.132-2.488 2.377-2.436 1.99-2.444 18.43l-.007 14.641H195.387V39.715l-.847-1.672c-.466-.92-1.337-2.04-1.937-2.49-2.154-1.618-3.166-1.725-16.293-1.725h-12.144v-9.6l12.44.005c13.843.006 15.416.17 19.106 1.991 4.318 2.132 8.082 6.984 9.074 11.7.379 1.798.539 84.23.164 84.23-.106 0-1.075-.785-2.153-1.745-1.078-.96-3.179-2.58-4.668-3.6l-2.709-1.855-.017-18.161-.016-18.162H14.567v53.967c0 40.03.098 54.288.378 55.207.505 1.66 2.236 3.588 3.954 4.407 1.402.668 1.412.668 48.085.668h46.681l1.25 1.992c.687 1.096 2.172 3.196 3.298 4.666 1.127 1.47 2.05 2.734 2.05 2.808 0 .074-22.721.122-50.49.106-40.782-.023-50.79-.11-52.054-.451z" fill="#53c0ab" stroke="#454c51" stroke-width=".7"/><path d="M148.308 63.381c-1.44-.698-2.897-2.399-3.31-3.862-.499-1.769-.47-43.47.03-44.925.579-1.678 1.51-2.802 2.904-3.501 2.739-1.375 5.869-1.094 7.962.714 2.388 2.063 2.245.59 2.35 24.244.064 14.27-.02 21.791-.254 22.865-.705 3.236-3.03 5-6.575 4.987-1.209-.004-2.48-.218-3.106-.522zM55.382 63.377c-1.434-.745-2.11-1.406-2.799-2.734-.587-1.132-.616-2.236-.616-23.452 0-24.53-.083-23.503 2.061-25.356 2.987-2.581 7.846-2.021 10.135 1.167l.975 1.36.098 21.973c.068 15.252-.011 22.343-.258 23.18-.447 1.51-2.103 3.396-3.483 3.963-1.433.589-4.896.532-6.113-.1zM71.256 29.028l.062-4.799h33.74l33.741-.001v9.6H71.195l.061-4.799z" fill="#53c0ab" stroke="#454c51" stroke-width=".7"/><path d="M34.137 113.544c-2.133-.725-4.01-2.468-4.935-4.583-.632-1.445-.683-2.053-.59-7.074.113-6.046.321-6.847 2.296-8.835 2.2-2.215 3.007-2.42 9.514-2.42h5.854l1.709.932c1.86 1.014 3.209 2.523 3.862 4.32.557 1.535.591 10.834.046 12.632-.611 2.015-3.238 4.494-5.432 5.128-2.604.752-9.994.692-12.324-.1z" fill="#f89e3d" stroke="#454c51" stroke-width=".7"/><path d="M67.21 111.354c-3.196-3.25-9.389-10.925-9.389-11.636 0-1.217 3.342.915 9.019 5.754 1.472 1.255 2.789 2.275 2.927 2.266.137-.008.908-.81 1.713-1.783.805-.972 3.951-4.195 6.992-7.162 7.811-7.622 8.944-8.466 8.944-6.663 0 1.21-10.3 14.57-15.19 19.704-1.86 1.95-2.704 1.87-5.015-.48z" fill="#df5b49" stroke="#df5b49" stroke-width="1.5"/><path d="M99.73 113.944c-1.79-.304-4.302-2.128-5.382-3.907-1.272-2.093-1.524-3.82-1.35-9.25.11-3.434.249-4.313.88-5.594.957-1.94 2.983-3.645 5.046-4.248 2.276-.665 9.897-.646 12.213.031 2.37.693 4.657 2.943 5.36 5.275.689 2.28.708 9.779.033 12.018-.612 2.027-2.343 4.02-4.318 4.973-1.395.673-2.028.75-6.584.796-2.773.029-5.427-.013-5.899-.094z" fill="#f89e3d" stroke="#454c51" stroke-width=".7"/><path d="M133.367 112.987c-1.026-.41-10.828-12.264-10.828-13.094 0-1.293 2.06-.05 7.907 4.771 3.749 3.09 3.87 3.162 4.433 2.574.318-.333 1.986-2.137 3.707-4.01 4-4.352 12.471-12.202 12.989-12.034 1.028.333.4 1.602-3.21 6.479-4.35 5.88-6.994 9.143-10.436 12.88-2.417 2.626-3.13 3.006-4.562 2.434z" fill="#df5b49" stroke="#df5b49" stroke-width="1.5"/><path d="M98.148 147.888c-1.477-.628-3.45-2.514-4.323-4.132-.595-1.102-.709-1.954-.82-6.124-.153-5.745.238-7.544 2.104-9.689.672-.772 1.948-1.731 2.858-2.148 1.508-.692 2.071-.754 6.81-.757 3.028-.003 5.694.153 6.442.373 1.592.47 3.991 2.515 4.816 4.105l.624 1.203-1.784 2.669c-2.21 3.305-4.625 8.15-6.005 12.048l-1.047 2.96-4.269-.012c-3.066-.009-4.589-.149-5.406-.496zM65.372 147.571c-.926-.453-2.131-1.382-2.68-2.063-1.741-2.164-2.014-3.513-1.887-9.345.125-5.766.407-6.734 2.565-8.81 2.02-1.943 2.834-2.148 8.978-2.258 5.146-.093 5.711-.046 7.233.598.907.384 2.178 1.273 2.823 1.976 2.043 2.225 2.233 2.98 2.24 8.887.009 6.261-.336 7.518-2.631 9.6-2.306 2.09-2.929 2.24-9.32 2.24-5.408 0-5.707-.033-7.321-.825z" fill="#f89e3d" stroke="#454c51" stroke-width=".7"/><path d="M34.243 145.116c-3.22-3.407-8.455-10.062-8.455-10.748 0-.298.237-.515.538-.493.68.05 4.53 2.892 8.23 6.076l2.842 2.445 1.992-2.2c5.401-5.966 14.596-14.659 15.271-14.438.95.312.418 1.478-2.525 5.533-3.934 5.422-7.665 10.06-10.99 13.665-3.397 3.683-3.57 3.688-6.903.16z" fill="#df5b49" stroke="#df5b49" stroke-width="1.5"/><path d="M33.906 182.45c-1.908-.666-3.55-2.135-4.512-4.033-.808-1.596-.842-1.888-.839-7.121.003-5.042.061-5.58.762-7.06.843-1.783 2.56-3.432 4.328-4.16 1.666-.684 11.888-.684 13.555 0 1.768.728 3.484 2.377 4.328 4.16.7 1.48.758 2.018.761 7.06.003 5.233-.031 5.525-.839 7.12-.99 1.956-2.614 3.374-4.645 4.054-1.971.661-10.99.647-12.9-.02zM65.952 182.308c-1.802-.819-3.41-2.299-4.334-3.989-.617-1.128-.713-1.897-.813-6.475-.09-4.125-.006-5.512.406-6.731.704-2.086 2.129-3.694 4.153-4.686 1.628-.799 1.902-.83 7.4-.822 6.595.008 7.431.234 9.65 2.611 1.999 2.144 2.238 3.133 2.23 9.222-.006 5.839-.192 6.606-2.116 8.763-2.068 2.318-3.004 2.584-9.422 2.683-5.185.081-5.821.028-7.154-.576zM97.967 182.2c-.91-.417-2.186-1.376-2.858-2.149-1.866-2.145-2.257-3.944-2.104-9.69.143-5.366.47-6.435 2.602-8.535 1.781-1.752 3.238-2.213 7.012-2.221l3.334-.008.006 4.56c.008 6.299.995 12.604 2.731 17.446l.486 1.355-4.782-.01c-4.336-.01-4.936-.074-6.427-.757z" fill="#f89e3d" stroke="#454c51" stroke-width=".7"/><path d="M122.214 166.318c-.472-.464-.65-1.067-.65-2.19 0-2.267.524-2.61 3.99-2.61 2.527 0 2.851.07 3.308.711.737 1.036.657 3.3-.144 4.09-.542.532-1.084.64-3.252.64-2.168 0-2.71-.108-3.252-.64z" fill="#eec84c" stroke="#454c51" stroke-width=".7"/><path d="M176.617 200.897c-.374-.343-1.495-2.683-2.491-5.2-.996-2.518-4.101-10.337-6.9-17.378-2.8-7.04-5.16-13.187-5.247-13.66-.125-.685 1.461-3.613 7.892-14.56 4.426-7.537 8.283-13.847 8.57-14.023 2.13-1.306 4.594-.106 4.583 2.231-.002.677-2.224 4.732-7.364 13.45-4.047 6.865-7.348 12.697-7.336 12.96.013.265 2.96 7.918 6.55 17.008 3.59 9.089 6.528 16.84 6.528 17.225 0 .385-.427 1.12-.95 1.635-1.146 1.128-2.799 1.262-3.835.312z" fill="#eec84c"/><path d="M200.373 166.134c-.717-.706-.814-1.028-.675-2.24.25-2.193.547-2.376 3.836-2.376 3.51 0 3.886.264 3.886 2.725 0 2.292-.597 2.715-3.828 2.715-2.125 0-2.471-.089-3.219-.824zM162.428 128.93c-.412-.448-.538-1.224-.538-3.31 0-3.27.366-3.785 2.685-3.785 2.121 0 2.843.95 2.843 3.744 0 1.992-.363 3.203-1.105 3.691-.744.49-3.331.262-3.885-.34zM162.28 205.937c-.247-.243-.39-1.463-.39-3.321 0-3.462.223-3.778 2.673-3.778 2.312 0 2.855.716 2.855 3.767 0 3.167-.426 3.716-2.88 3.716-1.027 0-2.044-.173-2.258-.384z" fill="#eec84c" stroke="#454c51" stroke-width=".7"/></svg>