<svg xmlns="http://www.w3.org/2000/svg" width="120" height="120"><path d="M5.322 82.179c-.159-2.037.165-4.3.386-6.105.061-.785.162-1.531.224-1.658s.204-.64.317-1.142c.202-.903 1.273-4.226 1.433-4.446.046-.063.353-.695.683-1.404.54-1.16 2.637-4.24 3.587-5.265.348-.377.9-.349 1.092.056 2.904 2.402 7.8 3.583 11.19 1.872 1.393-.796 1.873-1.108 2.363-1.536.918-.801 1.03-.803 1.755-.034 1.724 1.828 3.442 4.8 4.571 7.907.316.869.766 2.514.766 2.799 0 .174.053.393.118.487.414.6.846 4.919.93 9.31l.07 3.59H5.322v-4.432zM18.495 60.197c-.615-.334-1.25-.432-1.932-.676-3.55-2.816-5.518-5.51-6.513-9.793 0-.229-.089-.544-.197-.7-.279-.404-.279-7.417 0-7.82.108-.157.197-.47.197-.697 0-.722 1.08-3.678 1.81-4.956.973-1.704 3.134-4.117 3.687-4.117.097 0 .176-.09.176-.202 0-.112.266-.275.591-.363.325-.088.69-.279.813-.424.321-.385 5.602-.367 5.87.02.108.157.292.285.41.285.319 0 1.528.838 2.452 1.698.797.741 1.754 1.982 2.396 3.104.36.63 1.337 2.887 1.337 3.09 0 .073.097.456.216.851 1.145 3.799.96 8.55-.504 12.904-.657 1.956-2.893 5.098-4.37 6.143-.602.425-1.224.867-1.382.982-1.21.506-2.361.806-3.495.866-.516.045-1.123-.116-1.562-.195z" fill="#eec84c" fill-opacity=".855" stroke="#454c51" stroke-width=".4"/><path d="M37.084 73.792c-.4-1.8-1.145-4.196-1.343-4.324-.112-.331-.232-.682-.32-1.015-.11-.171-.332-.684-.492-1.141a8.415 8.415 0 0 0-.681-1.44c-.214-.336-.39-.667-.39-.735 0-.068 3.154-.151 7.009-.185l7.009-.06.041-10.878.042-10.878H33.698v-.8c.011-.518-.175-.993-.32-1.424 0-.288 1.118-.336 7.822-.336h7.821l.349.539.348.538v12.494c0 12.27-.006 12.501-.325 12.899-.29.36-.882.418-5.407.521l-5.081.116v5.12l2.174.116c2.454.131 2.712.295 2.712 1.728v.831H37.46l-.376-1.687zm10.841-7.795c-.041-.316-.215-.407-.77-.407s-.729.092-.77.407c-.046.345.07.407.77.407.699 0 .816-.062.77-.407z" fill="#454c51" stroke="#454c51" stroke-width=".193"/><path d="M33.446 51.338c.337-2.034.399-2.639.405-3.955l.007-1.455h11.855v6.05H33.34l.106-.64zM40.907 58.26v-3.955h4.806v7.911h-4.806V58.26zM31.027 61.21c-.456-.535-.834-1.077-.838-1.205-.005-.128.244-.651.554-1.163.31-.512.892-1.742 1.293-2.734l.731-1.803h6.218v7.911l-3.565-.017-3.564-.017-.83-.972z" fill="#1e899e" fill-opacity=".855" stroke="#1e899e" stroke-width=".193"/><path d="M32.68 17.133l-2.77-2.689 1.068-.937c1.6-1.405 2.26-1.908 3.35-2.558.632-.449 1.214-.937 1.786-1.275.439-.188.946-.474 1.126-.637.181-.162.92-.582 1.644-.932.723-.351 1.374-.696 1.446-.766.16-.155 1.601-.814 3.035-1.388a23.18 23.18 0 0 0 1.46-.633c.882-.324 1.718-.504 2.62-.807 1.274-.669 8.648-1.748 11.883-1.74 3.887-.004 8.053.779 11.61 1.379 1.589.312 2.942.69 4.452 1.144.8.402 3.164 1.28 3.447 1.28.155 0 .817-.718 1.472-1.595 2.101-2.815 1.841-2.665 2.445-1.418l1.35 2.794c.714 1.711 1.735 3.325 2.411 4.989a274.265 274.265 0 0 1 1.99 4.11c.508 1.08 1.098 2.267 1.31 2.64.211.372.384.746.384.83a152.026 152.026 0 0 1-18.806-1.508l1.172-1.658a91.571 91.571 0 0 0 1.358-1.957c.225-.36-1.04-1.019-2.418-1.259-6.521-1.638-14.37-1.892-20.416-.755-.736.142-1.492.404-2.084.655-.495 0-1.918.564-4.717 1.87-.653.304-1.247.624-1.32.71-.072.087-.398.238-.725.337-.742.494-1.54.973-2.187 1.41-1.565.952-3.067 2.154-4.447 3.062-.088-.004-1.406-1.22-2.93-2.698z" fill="#f89e3d" fill-opacity=".855" stroke="#454c51" stroke-width=".461"/><path d="M55.837 113.937c-1.162-.011-2.308-.382-3.327-.665-.602 0-2.634-.602-3.923-1.162-.45-.196-.922-.355-1.05-.355-.323 0-1.311-.436-4.136-1.826-2.124-1.045-3.202-1.294-3.202-.738-.55.843-1.282 1.595-1.923 2.38-.673.867-.769.914-1.039.506-.163-.247-.513-1.075-.778-1.84-.758-1.827-1.474-3.616-2.058-5.401-.195-.439-.56-1.31-.813-1.936-.422-.99-.858-1.992-1.167-3.014-.479-1.39-1.174-2.772-1.556-4.22 0-.245.118-.313.324-.188.336.204 1.292.36 5.25.854 1.284.16 2.514.38 2.734.49 1.826.372 3.411.405 5.304.773.286.127 1.497.32 2.692.428l2.173.197-1.136 1.362c-.625.748-1.252 1.545-1.395 1.77-.143.225-.362.482-.487.571-.125.09-.148.287-.052.44.232.365 3.842 2.055 4.39 2.055 1.574.865 3.39 1.143 4.705 1.568 1.148.373 8.574.546 10.242.239 2.08-.534 4.699-.878 6.417-1.807 2.923-1.078 5.407-2.48 7.714-4.11.57-.382 1.544-1.155 2.163-1.719 1.214-1.105 1.06-1.113 2.587.137.34.278.995.847 1.455 1.265.46.417 1.342 1.202 1.96 1.745l1.125.985-1.849 1.734c-1.057 1.034-2.332 1.887-3.415 2.758-1 .822-2.141 1.41-3.22 1.973-.871.535-1.992 1.153-2.492 1.373-2.566 1.132-3.42 1.456-5.445 2.064-1.212.364-2.569.775-3.016.914-.446.14-1.763.324-2.925.412-3.649.904-7.434.28-10.831-.012z" fill="#f89e3d" fill-opacity=".855" stroke="#454c51" stroke-width=".43"/><path d="M60.692 69.9c-2.853-1.072-5.115-4.123-6.044-8.15-.605-2.621-.755-4.095-.568-5.584.36-2.859 1.288-5.836 2.266-7.265 1.034-1.328 1.844-2.557 3.222-3.338.64-.484 2.477-1.03 3.466-1.03 2.527 0 5.755 2.316 6.889 4.944.987 1.698 1.25 3.304 1.771 5.149.383 2.535.087 5.1-.43 7.442-.123.872-.47 1.685-.79 2.36-.443 1.197-1.954 3.3-3.025 4.212-.876.746-1.342.984-2.912 1.492-1.008.326-2.622.229-3.845-.231zm3.862-1.992c.588-1.07.704-2.169.704-6.693 0-2.376.07-4.59.156-4.917.136-.52.25-.597.881-.597.399 0 .726.078.727.174.002.096.046.41.099.698.087.47.039.524-.466.524-.365 0-.596.13-.66.368-.053.202-.097 1.87-.097 3.706 0 4.132-.028 4.07 1.854 4.07 1.965 0 1.992-.055 1.989-4.13-.002-1.76-.064-3.341-.14-3.514-.075-.173-.38-.386-.676-.474-.453-.135-.58-.322-.797-1.174-.598-2.352-2.92-2.5-3.711-.235-.235.673-.28 1.47-.284 4.99-.004 4.286-.132 5.852-.506 6.196-.286.263-1.276.247-1.573-.025-.198-.18-.25-1.03-.29-4.736-.046-4.182-.028-4.526.24-4.666 1.295-.674 2.476-3.044 3.016-6.052.312-1.74.301-2.055-.094-2.785-.301-.555-.436-.613-1.423-.613-1.19 0-1.513.275-1.422 1.208.048.485.137.537.934.544l.88.007-.027 1.126a6.5 6.5 0 0 1-.373 1.956c0 .358-.852 2.02-1.361 2.655-.186.231-.595.403-.973.407-.52.006-.787-.16-1.321-.825-.369-.458-.67-.922-.67-1.03 0-.11-.22-.892-.49-1.739-.27-.847-.469-1.77-.441-2.052.046-.47.124-.506.964-.432.871.076.92.051 1.02-.527.17-.993-.15-1.298-1.363-1.298-.876 0-1.139.091-1.443.502-.335.454-.362.644-.279 1.943.057.88.252 1.875.502 2.557.38 1.66 1.28 3.09 2.403 4.3l.409.226v4.043c0 4.326.11 5.227.764 6.253.484.757.789.872 2.037.767.813-.07 1.01-.176 1.301-.705z" fill="#d7899e" fill-opacity=".855"/><path d="M66.7 60.587v-2.56h2.082v5.12H66.7v-2.56z" fill="#1e899e" fill-opacity=".855" stroke="#454c51" stroke-width=".193"/><path d="M76.575 66.299l-.424-.57V55.121c0-9.372.03-10.673.259-11.18l.259-.573h8.083l.273.756c.245.678.268 1.583.225 8.764-.036 6.1-.095 8.031-.245 8.104-.154.075-.208-1.556-.24-7.31l-.043-7.406-3.965-.062-3.965-.062V63.834l2.954.063 2.954.063-.788 1.28c-.433.704-.789 1.358-.79 1.454-.003.096-.931.175-2.064.175-1.963 0-2.079-.026-2.483-.57zm4.623-1.175c0-.614-.056-.698-.464-.698-.582 0-.892.614-.582 1.156.125.218.394.35.631.31.343-.058.415-.19.415-.768z" fill="#454c51" stroke="#454c51" stroke-width=".193"/><path d="M77.914 49.884v-1.629H83.52v3.258H77.914v-1.63zM77.947 54.945l.047-1.687 2.763-.064 2.764-.064v3.501H77.9l.047-1.686zM77.914 60.122v-1.629H83.52v3.258H77.914v-1.63z" fill="#1e899e" fill-opacity=".855" stroke="#1e899e" stroke-width=".193"/><path d="M94.756 58.662c-1.93-.4-3.806-1.828-5.358-4.078-.694-1.006-1.347-2.034-1.452-2.285-.56-1.345-1.168-3.456-1.253-4.346-.46-2.55-.41-4.921-.012-7.14.086-.925 1.004-3.863 1.494-4.779.814-1.522 1.434-2.412 2.305-3.31.984-1.015 2.274-1.97 2.66-1.97 2.364-.842 5.546-.515 7.368.482 1.03.888 2.173 1.97 2.942 3.062.96 1.387 1.776 3.19 2.163 4.778.153.627.361 1.386.463 1.687.303.899.232 6.289-.101 7.632-.461 1.49-.843 3.07-1.527 4.453 0 .451-2.627 3.897-2.97 3.897-.235.346-.553.506-.92.72-1.539.913-2.126 1.104-3.674 1.196-.91.054-1.868.055-2.128 0z" fill="#53c0ab" fill-opacity=".855" stroke="#454c51" stroke-width=".4"/><path d="M96.158 71.84a.997.997 0 0 1-.236-.39c-.034-.126-.476-1.116-.982-2.201l-.92-1.973.368-.99c.203-.545.404-1.042.449-1.105.044-.063.215-.488.38-.945l.301-.83-.505-.993-.506-.995 1.682-.065c.925-.035 1.71-.024 1.745.027.09.129-.474 1.517-.617 1.519-.354 0 .13 1.845.93 3.529.315.666.264 1.09-.26 2.136-.434 1.196-1.081 2.257-1.83 3.276z" fill="#53c0ab" fill-opacity=".855" stroke="#53c0ab" stroke-width=".19"/><path d="M78.445 82.635c-.164-1.895.197-3.999.363-5.67.17-2.04.511-2.678.898-4.435 0-.34.912-2.75 1.66-4.386.712-1.554 1.523-2.846 2.865-4.56 1.05-1.34 1.023-1.313 2.488-2.585 2.073-1.8 2.159-1.836 2.46-1.005.103.282.23.564.282.626.052.063.233.474.401.912.169.44.381.923.473 1.075.7 1.46 1.367 2.848 1.979 4.385.298.687.683 1.354.939 1.923.385.863.783 1.689.884 1.835.2.538.415 1.022.698 1.482 0 .116.286.834.636 1.596.647 1.409 1.129 1.77 1.311.985.09-.388.415-1.195.575-1.425.226-.329.788-1.607.788-1.796 0-.12.054-.252.12-.294.066-.042.561-1.05 1.1-2.242.537-1.191 1.05-2.29 1.14-2.441.088-.152.161-.342.161-.423 0-.081.213-.537.473-1.012.292-.628.616-1.337.877-1.88.061-.283.154-.565.208-.628.053-.063.416-.804.806-1.647.507-1.097.806-1.535 1.05-1.539.188-.003.366.071.395.166.028.094.371.405.761.692.766.563 1.293 1.006 1.419 1.19.043.064.344.372.668.684 1.558 1.852 3.058 3.987 3.985 5.926.43.94.831 1.762.89 1.826.057.064.154.398.213.741.307.684.455 1.393.61 2.072.121.395.34 1.283.486 1.973.146.69.334 1.561.417 1.937.084.377.195 2.762.248 5.301l.096 4.617H78.446zm28.052-5.828v-1.595h2.206v-3.876h-2.206v-3.192H103.975V71.315l-1.063.067-1.064.067-.046 1.88-.046 1.882h2.22v3.192h2.521v-1.596z" fill="#53c0ab" fill-opacity=".855" stroke="#454c51" stroke-width=".4"/><path d="M66.908 60.588v-2.404h1.78v4.807h-1.78v-2.403z" fill="#454c51" stroke="#f89e3d" stroke-width=".178"/><path d="M18.57 60.206c-2.408-.976-4.232-2.126-5.923-4.222-1.016-1.28-2.352-4.489-2.62-6.291-.033-.215-.12-.49-.196-.612-.075-.122-.153-1.669-.172-3.438-.032-2.83.021-3.59.358-5.174.168-.792.2-.9.334-1.113.249-1.12.764-2.326 1.245-3.291.791-1.572 1.2-2.11 2.848-3.742 1.723-1.768 3.802-2.177 5.55-2.18 2.889-.178 5.3 1.433 6.947 3.428.824 1.043 1.693 2.41 1.765 2.777.022.112.168.484.325.827.397.87.544 1.284.745 2.092l.188.757c.182.728.276 1.175.392 1.87.161.964.163 5.15.002 6.142-.252 1.56-.31 1.874-.423 2.314-.064.245-.135.542-.16.661-.706 3.432-4.61 8.338-7.04 8.848-1.346.444-2.91.795-4.165.347z" fill="none" stroke="#454c51" stroke-width=".178"/><path d="M14.112 57.221c-1.998-2.01-3.02-3.896-3.816-7.049-.444-1.76-.632-5.647-.38-7.868.407-3.584 1.907-6.984 4.09-9.27 1.609-1.684 2.861-2.357 4.903-2.637 2.655-.363 4.809.336 6.82 2.214 1.992 1.859 3.361 4.415 4.125 7.702.309 1.328.377 2.188.375 4.718-.005 5.398-.919 8.28-3.697 11.657-1.35 1.642-2.743 2.68-4.134 3.085-3.372 1.09-6.37-.643-8.286-2.552z" fill="none" stroke="#454c51" stroke-width=".02"/></svg>