<svg xmlns="http://www.w3.org/2000/svg" width="220" height="220"><path d="M121.773 47.04V5.53h48.799l7.236 7.011 7.237 7.011v4.09c0 3.14.158 4.091.681 4.091.375 0 2.299-.907 4.276-2.016 3.29-1.846 3.567-2.121 3.274-3.258-.795-3.08-.775-3.785.17-5.918.551-1.244 1.455-2.702 2.01-3.238 1.585-1.537 4.828-2.946 6.777-2.946 1.983 0 5.197 1.416 6.85 3.017.594.575 1.45 2.14 1.904 3.48.735 2.172.747 2.69.106 4.846-.462 1.552-1.414 3.099-2.67 4.334-3.443 2.636-6.236 2.73-10.425 1.496-3.743-2.175-3.063-2.229-8.308.661-4.108 2.264-4.646 2.865-4.646 5.2 0 1.743-.155 2.065-.996 2.065-.724 0-.996-.322-.996-1.178 0-1.846-.819-1.907-3.57-.266-1.404.836-3.025 1.729-3.602 1.982-.577.253-3.715 2.028-6.973 3.944l-5.925 3.482-.054 3.79-.054 3.79 6.975 3.983c3.836 2.19 7.983 4.504 9.215 5.14 1.233.636 2.384 1.347 2.56 1.58.538.714 1.427-.17 1.427-1.417 0-.857.272-1.179.997-1.179.844 0 .996.322.996 2.107 0 1.894.19 2.234 1.895 3.378a284.488 284.488 0 0 0 6.136 3.489c1.278.81 1.346.795 3.33-.75 2.165-1.686 5.11-2.323 8.163-1.767 2.538.462 5.366 3.201 6.362 6.162.766 2.277.78 2.776.13 4.972-1.362 4.612-4.065 6.544-9.45 6.97 0 0-3.768-1.01-5.534-2.593-2.348-2.276-3.742-5.776-3.06-8.694 1.14-.683.305-1.69-2.952-3.565-1.898-1.092-3.803-1.986-4.235-1.986-.691 0-.785 1.298-.785 10.86v10.86h-63.272V47.04zm60.976 38.816c.167-.42.303-5.157.303-10.526 0-7.087-.17-9.97-.623-10.517-.342-.414-1.856-1.379-3.363-2.143-1.507-.765-2.852-1.53-2.989-1.7-.137-.171-2.028-1.233-4.202-2.361-2.174-1.128-5.2-2.78-6.725-3.671-3.32-1.94-4.163-1.997-6.103-.416-.814.664-1.898 1.207-2.409 1.207-3.306 1.56-7.02.173-9.851-2.064-4.037-4.814-3.239-10.743 1.897-14.085 3.225-2.099 6.794-2.06 10.11.108 1.313.858 2.602 1.56 2.866 1.56.399 0 13.503-7.171 15.912-8.708.41-.262 1.363-.712 2.117-1 3.03-1.584 3.354-3.598 3.363-5.979 0-4.817.368-4.585-7.277-4.585h-6.673V7.944h-44.838V46.96c0 21.459.15 39.161.332 39.338.182.177 13.274.322 29.092.322 25.765 0 28.79-.08 29.062-.764zm22.902-5.535c2.5-1.429 3.45-3.097 3.45-6.055 0-1.874-.285-2.875-1.108-3.893-1.372-1.698-3.819-3.013-5.656-3.04-1.857-.027-4.99 1.57-5.995 3.055-4.089 6.046 2.957 13.564 9.309 9.933zm-45.115-32.794c.153-2.058.005-2.918-.597-3.503-1.51-2.344-3.91-3.444-6.281-3.484-4.385 0-6.975 2.504-6.975 6.742 0 3.477 1.42 5.265 5.23 6.587 4.64.72 8.304-2.563 8.623-6.342zm45.333-22.062c2.08-1.156 3.354-3.689 3.264-6.486-.062-1.92-.366-2.608-1.801-4.082-1.432-1.47-2.152-1.813-4.215-2.005-4.658-.255-7.762 2.235-7.843 6.594 0 2.918.914 4.611 3.222 5.975 1.709 1.01 5.56 1.012 7.373.003zm-25.546-6.92c.343-.538-7.318-8.188-8.2-8.188-.795 0-.706 8.056.093 8.368 1.188.465 7.789.318 8.107-.18z" fill="#1e899e" fill-opacity=".855" stroke="#1e899e"/><path d="M183.329 41.74c-.116-.113-.212-.573-.212-1.024v-.819h1.938v.754c0 1.118-.118 1.294-.864 1.294-.358 0-.746-.092-.862-.205zM183.118 47.238c0-.932.036-1.03.419-1.122.23-.057.646-.077.924-.046.49.054.508.089.559 1.123l.052 1.066h-1.954v-1.02zM183.243 54.467s-.153-1.636.025-1.91c.095-.145.421-.205.922-.17l.775.053v2.048l-.799.05c-.313-.006-.63-.045-.923-.07z" fill="#1e899e" fill-opacity=".855" stroke="#1e899e" stroke-opacity=".855"/><path d="M130.307 71.258v-1.203h46.79v2.406h-46.79v-1.203zM130.307 80.28v-1.566l12.093.062 12.093.062.053 1.504.052 1.504h-24.291V80.28zM159.33 80.282v-1.564h10.731v3.128h-10.73v-1.564z" fill="#ebe9d3" stroke="#454c51" stroke-width=".5"/><path d="M130.31 13.96v-1.505l8.518.06 8.517.06.056 1.446.057 1.445H130.31v-1.505zM130.31 22.75V21.48h3.103c2.159 0 3.172.084 3.33.277.344.417.291 1.957-.072 2.126-.166.078-1.664.14-3.33.14h-3.03v-1.271zM141.807 23.702c-.056-.179-.075-.725-.042-1.216l.06-.891h23.98v2.312l-11.948.06c-10.107.05-11.963.007-12.05-.265z" fill="#ebe9d3" stroke="#454c51" stroke-width=".6"/><path d="M11.462 189.959c-.182-.163-.24-3.215-.24-12.645 0-10.962.036-12.478.312-12.828l.312-.397h7.68c7.184 0 7.7.02 8.01.327.303.297.332 1.446.332 12.827 0 9.485-.058 12.553-.24 12.716-.346.308-15.82.308-16.166 0zM32.442 170.744c-.043-10.391-.009-19.074.076-19.295l.154-.402h7.887c5.867 0 7.95.055 8.128.214.184.164.24 4.569.24 18.737 0 10.187-.055 18.774-.124 19.08l-.126.559H32.521l-.079-18.893zM71.578 188.282c-.126-.287-.626-1.606-1.112-2.933-.485-1.326-.966-2.542-1.067-2.7-.101-.16-.29-.642-.418-1.072a10.338 10.338 0 0 0-.498-1.32c-.269-.544-.871-2.137-1.42-3.751-.166-.492-.385-1.054-.486-1.251-.101-.196-.55-1.362-.998-2.59-.448-1.229-.89-2.355-.983-2.504-.093-.149-.325-.752-.516-1.34-.192-.588-.417-1.15-.5-1.248-.085-.099-.263-.581-.398-1.072-.134-.492-.364-1.135-.51-1.43-.147-.294-.745-1.803-1.33-3.352-.584-1.55-1.148-2.792-1.253-2.76-.204.06-.49.907-1.126 3.343-.218.835-.633 2.403-.922 3.484-.289 1.08-.726 2.73-.972 3.663-.246.933-.503 1.818-.572 1.965a3.024 3.024 0 0 0-.187.61c-.034.189-.174.376-.312.417-.2.058-.25-4.058-.25-20.19 0-19.406.015-20.278.366-20.561.328-.264 1.17-.296 7.884-.296 6.18 0 7.587.045 7.907.254.383.25.388.706.314 28.54-.04 15.559-.15 28.361-.243 28.45-.097.094-.266-.058-.398-.356z" fill="#53c0ab" stroke="#454c51" stroke-width=".7"/><path d="M133.502 167.743c-.711-.159-1.555.232-3.286 1.525-.133.1-.284.18-.335.18-.05 0-.779.362-1.618.804-.84.443-1.575.804-1.634.804-.059 0-.575.197-1.147.437-2.41 1.01-5.732 1.861-8.763 2.245-1.573.2-6.49.202-8.022 0-1.578-.203-4.856-.87-5.239-1.065-.178-.09-.72-.258-1.203-.37-1.27-.298-5.297-2.092-7.024-3.13-4.012-2.411-7.585-5.81-10.137-9.646-.368-.552-1.669-2.912-1.669-3.027 0-.056-.175-.443-.39-.86-.214-.416-.535-1.239-.714-1.829-.178-.59-.407-1.232-.508-1.429-.1-.196-.41-1.6-.69-3.119-.607-3.316-.681-6.936-.19-9.298.729-3.501 1.49-6.216 1.878-6.7.08-.098.294-.54.477-.982.301-.726.588-1.235 1.944-3.446.742-1.21 2.334-3.158 3.637-4.452.701-.696 1.32-1.317 1.376-1.379.189-.214 3.71-2.794 4.292-3.146 3.172-1.916 7.438-3.73 9.847-4.187.552-.105 1.184-.265 1.404-.355 1.698-.7 11.922-.712 13.639-.017.22.09.896.261 1.502.382 1.588.317 3.948 1.113 6.182 2.086 1.069.466 1.988.887 2.043.936.055.05.642.404 1.304.788 1.895 1.1 3.868 2.601 5.716 4.353 2.247 2.13 2.464 2.367 3.352 3.667.416.61.814 1.148.885 1.197.258.18 2.146 3.88 2.658 5.21 1.039 2.7 1.655 5.824 1.843 9.35.157 2.939-.113 5.713-.79 8.134-.864 3.092-1.373 4.173-4.273 9.074l-.562.95.4.576c.344.498 2.496 2.4 6.977 6.168.775.651 1.143 1.099 1.143 1.39 0 .29-.456.856-1.383 1.72a65.698 65.698 0 0 0-2.439 2.405zm-17.083-1.142c2.958-.357 6.901-1.69 9.426-3.188 2.264-1.342 4.74-3.4 6.162-5.12.41-.498.817-.984.904-1.083.759-.858 2.072-3.091 2.784-4.734.47-1.084.808-2.212 1.312-4.377.275-1.183.14-8.095-.168-8.576-.126-.196-.332-.812-.457-1.37-.684-3.027-3.482-7.334-6.49-9.99-2.47-2.18-6.764-4.64-8.888-5.093-.316-.067-.677-.194-.804-.282-.126-.088-1.119-.334-2.206-.547-2.546-.498-7.534-.538-10-.08-1.92.356-4.17 1.06-5.816 1.82-1.563.723-3.91 2.072-3.91 2.249 0 .076-.165.184-.366.24-1.033.293-5.76 5.23-6.297 6.577-.108.27-.278.491-.377.491-.1 0-.181.084-.181.187s-.188.525-.419.938c-.73 1.31-1.583 3.73-1.934 5.485-.4 1.996-.441 5.673-.089 7.772.453 2.697 1.907 6.19 3.563 8.563 3.645 5.222 10.127 9.193 16.228 9.941.882.109 1.92.267 2.306.352.819.18 3.427.1 5.716-.176z" fill="#f5de95" stroke="#454c51" stroke-width=".8"/><path d="M108.704 164.102c-.223-.372-1.106-2.838-1.296-3.618-.116-.478-.528-.673-1.146-.542-.196.04-.454.443-.636.991-.169.508-.427 1.277-.574 1.71-.146.433-.413.869-.592.968-.483.266-2.078-.186-2.814-.799-.51-.424-.59-.593-.466-1.001.082-.27.315-1.135.518-1.92.203-.787.595-2.274.872-3.306.95-3.543 1.507-5.63 2.023-7.593.285-1.08.583-2.206.664-2.501.113-.414.259-.536.637-.536.336 0 .51.113.554.357.035.197.142.518.239.715.096.196.505 1.322.909 2.501 1.076 3.144 1.498 4.35 1.905 5.45.2.54.695 1.947 1.1 3.126.404 1.179.815 2.304.913 2.501.274.552.793 2.503.793 2.983 0 .695-.368.858-1.939.858-1.233 0-1.488-.053-1.664-.344zM117.371 199.507c-.34-.304-.629-1.03-1.763-4.42a126.74 126.74 0 0 0-.998-2.86c-.252-.687-.523-1.531-.602-1.875-.079-.344-.208-.706-.287-.804-.08-.098-.308-.742-.507-1.43-.2-.687-.428-1.33-.508-1.429-.08-.099-.26-.62-.4-1.161-.139-.54-.345-1.142-.459-1.337-.113-.195-.366-.878-.563-1.519a85.319 85.319 0 0 0-.891-2.683 185.65 185.65 0 0 1-.986-2.887l-.451-1.37 1.34-.12c1.244-.11 2.548.055 3.144.402.328.19 1.202 1.951 1.49 3 .133.487.312.967.396 1.065.085.098.302.689.483 1.313.182.623.408 1.266.503 1.429.094.162.459 1.14.81 2.17.753 2.221 1.448 4.215 1.9 5.45.18.491.462 1.335.627 1.876.166.54.432 1.236.591 1.546.16.31.29.642.29.738 0 .096.235.313.523.481.458.268 1.104.302 5.282.282 2.795-.013 4.98.051 5.294.158.531.18.534.19.534 2.055 0 1.67-.042 1.894-.388 2.059-.246.117-2.894.184-7.22.184-6.251 0-6.863-.026-7.184-.313zM73.79 215.178c-.172-.153-.472-.757-.667-1.342a76.783 76.783 0 0 0-.826-2.313c-.26-.688-.759-2.095-1.11-3.127-.352-1.031-.721-2.036-.822-2.233-.17-.335-.318-.758-1.364-3.93-.227-.688-.495-1.412-.595-1.608-.1-.197-.473-1.202-.828-2.234-.924-2.686-1.828-5.212-2.014-5.627-.088-.197-.49-1.322-.894-2.501-.404-1.18-.952-2.72-1.218-3.425-.267-.704-.484-1.376-.484-1.492 0-.116-.126-.464-.28-.774-.153-.31-.331-.703-.395-.875-.32-.868-.751.053-1.543 3.3-.222.912-.573 2.34-.779 3.176a200.55 200.55 0 0 0-.7 2.948c-.18.786-.499 2.113-.71 2.948l-.609 2.433c-.172.693-.347.964-.724 1.117-.354.144-4.475.201-14.312.201-12.292 0-13.85-.03-14.13-.28-.434-.386-.454-3.323-.025-3.705.494-.44 2.663-.52 12.944-.478 5.462.022 10.111.027 10.332.012.22-.015.616-.187.88-.383.498-.369.655-.812 1.552-4.367.832-3.294 1.324-5.21 2.781-10.81.294-1.129.751-2.898 1.016-3.93.265-1.031.714-2.76.999-3.84l.8-3.038c.154-.59.284-1.287.288-1.55.005-.328.141-.518.429-.6.564-.159.666-.025 1.097 1.436.202.688.485 1.451.627 1.697.142.246.26.542.26.659 0 .213.716 2.339 1.4 4.165.203.54.705 1.947 1.115 3.126a326.37 326.37 0 0 0 1.4 3.93c.359.983.94 2.632 1.29 3.663.35 1.032.804 2.318 1.008 2.859.203.54.699 1.947 1.101 3.126.403 1.18.804 2.265.892 2.413.089.148.318.831.51 1.519.193.687.417 1.33.498 1.428.081.098.313.742.515 1.43.201.687.434 1.37.517 1.518.082.147.436 1.112.786 2.144.35 1.032.854 2.46 1.12 3.173.267.713.485 1.38.485 1.483 0 .103.174.527.386.943.213.416.448.974.523 1.24.076.268.207.486.293.486.208 0 .709-.697.899-1.25.084-.246.312-.769.506-1.162 1.153-2.33 1.605-3.293 1.606-3.425 0-.083.145-.39.321-.684.177-.295.44-.817.587-1.161.147-.344.623-1.39 1.057-2.323 1.149-2.468 1.062-2.431 5.77-2.384 2.184.022 4.02-.038 4.324-.142.664-.226 1.1-.971 1.499-2.566.336-1.34.934-3.628 1.774-6.789.287-1.08.7-2.675.917-3.543.216-.868.44-1.645.497-1.727.057-.082.281-.86.498-1.727.756-3.021 1.336-5.153 1.474-5.42.076-.147.21-.63.297-1.072.142-.72.213-.8.675-.773.283.016 1.303.335 2.267.708l1.751.678-.12.78c-.066.43-.187.875-.27.99-.082.114-.348 1.052-.59 2.084s-.679 2.8-.97 3.93c-.293 1.13-.698 2.698-.9 3.484-.438 1.695-.931 3.524-1.348 5.003-.167.59-.458 1.72-.647 2.514-.19.794-.4 1.521-.466 1.617-.066.095-.267.933-.446 1.862-.448 2.319-.854 3.493-1.404 4.062l-.466.483-4.429-.056c-3.001-.039-4.657.011-5.137.15-.8.236-.983.501-2.423 3.526a124.981 124.981 0 0 1-2.195 4.424 54.704 54.704 0 0 0-.86 1.787c-.318.688-.835 1.802-1.148 2.475-.314.674-.775 1.344-1.025 1.49-.673.393-4.261.43-4.69.048z" fill="#df5b49" stroke="#df5b49"/><path d="M124.943 204.645v-1.251h7.621v2.501h-7.621v-1.25zM127.35 191.349c0-1.92.028-1.89-1.827-1.89h-1.583v-2.487l1.654-.051 1.655-.051v-2.859l1.446-.05 1.446-.052.059 1.482.058 1.482 1.755.05 1.755.052v2.487h-1.488c-2.169 0-2.122-.038-2.122 1.716v1.5h-2.808v-1.325z" fill="#1e899e" stroke="#1e899e"/><path d="M161.067 193.649c-.244-.152-1.06-.815-1.816-1.474-4.19-3.653-6.058-5.218-6.233-5.218-.108 0-.253-.16-.323-.357-.07-.197-.221-.357-.336-.357-.114 0-.386-.202-.604-.449-.218-.246-.473-.406-.566-.354-.094.05-.228-.07-.3-.27-.07-.199-.212-.316-.315-.26-.102.056-.186 0-.186-.136 0-.36-2.532-2.524-2.787-2.384-.124.068-.221 0-.221-.148 0-.15-.858-1.024-1.906-1.944-1.875-1.646-1.905-1.685-1.905-2.52 0-1.172.076-1.282 2.507-3.593.22-.21.7-.698 1.067-1.085 1.384-1.462 3.548-3.31 3.991-3.41.253-.054.753-.05 1.11.01.685.118 1.525.79 7.57 6.062 1.71 1.49 4.76 4.14 6.777 5.886 4.297 3.72 4.619 4.205 3.603 5.427-.399.48-2.563 2.66-3.961 3.99-.276.263-.908.899-1.404 1.413-.496.515-1.146 1.051-1.444 1.192-.709.335-1.764.326-2.318-.02z" fill="#f5de95" stroke="#454c51" stroke-width=".7"/><path d="M26.973 122.817c-.108-.22-.22-3.054-.25-6.296-.1-10.98 4.19-23.126 11.114-31.476 5.917-7.134 15.977-14.6 25.597-18.993l4.104-1.874-3.685-7.533c-2.027-4.143-3.582-7.58-3.455-7.639.248-.113 40.828 6.037 43.04 6.523 1.146.251-.155 2.716-9.927 18.802-6.186 10.182-11.377 18.572-11.535 18.644-.158.073-1.966-3.3-4.018-7.494l-3.73-7.626-6.435 3.421C46.585 92.553 34.9 103.824 28.958 118.734c-.983 2.467-1.876 4.305-1.985 4.083z" fill="#f89e3d" stroke="#454c51" stroke-width=".7"/></svg>