<svg xmlns="http://www.w3.org/2000/svg" width="220" height="220"><g transform="translate(0 -832.362)"><ellipse cx="110" cy="942.362" rx="109.005" ry="109.005" fill="#98d9cd" stroke="#454c51" stroke-width=".7"/><path d="M77.988 1001.59c-2.177-.737-4.632-2.817-5.478-4.64-.52-1.12-.624-10.223-.624-54.543 0-32.8.166-53.602.432-54.248.237-.577 1.173-1.809 2.08-2.738 2.923-2.99 2.377-2.945 35.624-2.945 32.57 0 32.615.003 35.277 2.597 3.105 3.025 2.882-1.676 2.751 57.834l-.117 53.777-1.27 1.775c-.88 1.229-1.99 2.084-3.611 2.782l-2.34 1.008-30.464-.025c-25.508-.021-30.756-.125-32.26-.634zm36.142-3.959c1.81-1.563 2.566-3.226 2.3-5.057-.626-4.323-5.092-6.52-9.246-4.547-4.188 1.989-4.424 7.767-.412 10.098 2.014 1.17 5.72.921 7.358-.494zm30.758-58.084l.115-44.556-34.866.107-34.866.107-.116 44.031c-.064 24.217-.02 44.267.1 44.556.171.415 7.385.502 34.867.417l34.651-.107.115-44.555zm-25.881-48.71c1.664-.585 2.062-2.431.737-3.424-.911-.681-1.961-.764-9.74-.764-7.447 0-8.825.099-9.452.679-1.044.966-.692 2.74.67 3.374 1.37.638 16.037.75 17.785.135z" fill="#fff" stroke="#454c51" stroke-width=".7"/><path d="M106.327 954.425c-.249-.354-.302-1.107-.302-4.261v-3.831h-3.832c-3.154 0-3.908-.053-4.262-.302-.417-.292-.431-.408-.431-3.669 0-3.26.014-3.377.43-3.67.355-.248 1.109-.3 4.263-.3h3.832v-3.875c0-5.02-.316-4.649 3.972-4.649s3.972-.37 3.972 4.65v3.873h3.875c5.02 0 4.65-.316 4.65 3.971s.37 3.97-4.65 3.97h-3.875v3.875c0 5.027.33 4.649-4.058 4.649-3.173 0-3.293-.015-3.584-.43z" fill="red" fill-opacity=".853"/><path d="M132.852 921.233c0-.115 1.757-2.425 3.905-5.135l3.905-4.926-1.021-1.455c-3.224-4.596-3.294-11.179-.166-15.707 8.345-12.08 28.12-10.24 33.305 3.1.81 2.085.955 5.91.317 8.353-1.099 4.202-5.261 8.56-10.044 10.515-5.419 2.215-11.048 2.091-16.343-.36l-1.63-.756-4.779 2.588c-6.877 3.724-7.45 4.014-7.45 3.783z" fill="#eec84c" stroke="#454c51" stroke-width=".7"/><path d="M154.707 907.397c-.322-.65-1.084-2.454-2.452-5.801-.389-.951-.781-1.73-.871-1.73-.09 0-.489.525-.885 1.165s-.798 1.211-.895 1.268c-.096.057-1.502.105-3.124.106-2.251.001-2.992-.042-3.128-.184-.407-.425.14-.52 3.01-.52h2.806l1.034-1.588c.57-.875 1.14-1.588 1.27-1.588.226 0 .775 1.168 2.897 6.153.415.977.826 1.803.912 1.835.087.033.429-.48.76-1.14.333-.66.686-1.28.786-1.377.137-.133 1.276-.177 4.63-.177 3.755 0 4.48.033 4.65.212.162.169.162.255 0 .424-.17.178-.885.211-4.558.211h-4.355l-.659 1.306c-.362.718-.734 1.48-.827 1.694-.252.58-.632.478-1.001-.269z" fill="#fff" stroke="#fff" stroke-width=".303"/><path d="M154.668 904.772c-.326-.718-1-2.29-1.497-3.494-1.206-2.919-1.213-2.932-1.492-3.025-.441-.147-.721.139-1.665 1.696l-.934 1.54-2.492.04-2.491.039.08-1.31c.091-1.514.505-2.388 1.633-3.45 2.242-2.11 6.052-2.247 8.5-.306l.894.71.818-.638c1.985-1.549 4.51-1.866 7.054-.885.973.376 2.005 1.295 2.655 2.365.421.694.457.876.456 2.306 0 1.335-.058 1.672-.407 2.4l-.406.847-4.339.07c-2.386.04-4.378.106-4.427.149-.05.042-.346.567-.66 1.165-.314.598-.598 1.087-.63 1.087-.031 0-.324-.588-.65-1.306z" fill="red"/><path d="M152.595 910.002c-3.596-2.06-6.413-4.488-7.62-6.565-.19-.327-.345-.66-.345-.738 0-.09.99-.158 2.637-.182l2.638-.039.657-1.092c.362-.6.7-1.093.751-1.094.052-.001.625 1.253 1.272 2.786 2.103 4.98 2.14 5.047 2.7 5.047.467 0 .521-.069 1.302-1.655l.815-1.656 3.458-.004c2.074-.002 3.457.05 3.457.13 0 .253-2.844 2.728-4.147 3.61-1.035.7-4.84 2.892-5.019 2.892-.022 0-1.172-.648-2.556-1.44z" fill="red"/><path d="M79.727 919.915a702.748 702.748 0 0 1-4.127-5.223l-2.75-3.512 1.293-2.242c2.82-4.89 2.883-9.683.19-14.568-2.06-3.74-6.57-7.029-11.316-8.256-2.768-.716-7.524-.67-10.361.102-6.208 1.688-11.106 6.257-12.588 11.743-1.061 3.927-.1 8.786 2.416 12.207 1.423 1.935 4.871 4.628 7.208 5.63 5.375 2.305 10.99 2.293 16.435-.033l2.168-.927 6.25 3.396c3.437 1.868 6.319 3.396 6.404 3.396.085 0-.465-.77-1.222-1.713z" fill="#f89e3d" stroke="#454c51" stroke-width=".7"/><path d="M139.094 957.373c.213 0 2.72 1.429 5.57 3.175l5.182 3.175 3.021-1.327c4.596-2.018 11.282-2.18 15.782-.381 4.658 1.86 7.053 3.729 9.22 7.189 3.629 7.06 1.9 15.64-2.855 19.844-5.57 4.808-12.02 5.418-19.441 3.503-4.765-1.23-10.345-6.035-11.981-10.32-1.439-3.763-1.091-8.98.814-12.226l1.333-2.27-3.516-4.9c-3.534-4.922-3.843-5.462-3.13-5.462z" fill="#df5b49" stroke="#454c51" stroke-width=".7"/><path d="M80.325 957.373c-.213 0-2.72 1.429-5.57 3.175l-5.182 3.175-3.022-1.327c-4.595-2.018-11.281-2.18-15.781-.381-4.658 1.86-7.053 3.729-9.22 7.189-2.38 3.801-2.871 8.261-1.396 12.673.88 2.629 1.836 3.922 4.78 6.464 5.57 4.807 11.492 6.125 18.912 4.21 4.765-1.23 10.344-6.035 11.981-10.32 1.438-3.763 1.09-8.98-.814-12.225l-1.333-2.272 3.516-4.898c3.534-4.923 3.843-5.462 3.129-5.462z" fill="#1e899e" stroke="#454c51" stroke-width=".7"/><path d="M114.72 1031.602c-1.814-2.253-11.799-31.828-11.799-34.95 0-4.52 3.412-3.385 5.454 1.815.996 2.535 2.51 4.61 3.365 4.61 1.238 0 1.554-3.717 1.554-18.3 0-15.407.293-18.542 1.853-19.837 3.309-2.746 5.062 1.586 5.062 12.508 0 8.868.152 9.507 1.851 7.807 2.35-2.35 5.064-.444 5.064 3.556 0 1.507.519 2.74 1.153 2.74s1.152-.518 1.152-1.152c0-.634 1.014-1.152 2.253-1.152 1.666 0 2.452 1.06 3.017 4.07.671 3.58.935 3.834 2.19 2.117.85-1.163 2.193-1.658 3.323-1.225 1.642.63 1.895 3.034 1.895 17.987 0 16.528-.108 17.334-2.561 19.053-3.279 2.296-23.034 2.577-24.825.353z" fill="#ebe9d3" stroke="#454c51" stroke-width=".7"/><path d="M56.685 980.129c-.156-.084-4.485-4.783-4.555-4.944-.066-.153-.066-.3.002-.496.062-.18.156-.277.346-.355.122-.05.235-.055 1.384-.055h1.25l.001-2.385v-2.386l.075-.145a.849.849 0 0 1 .194-.238l.119-.092 1.344-.01c1.292-.007 1.576.007 1.576.083 0 .011.03.038.066.059.036.02.1.107.143.19l.078.153.007 2.385.008 2.386h1.27c.697 0 1.275.011 1.283.026.008.014.05.033.094.043.11.024.249.16.308.301.06.145.067.431.013.547-.022.044-1.031 1.16-2.243 2.477-1.647 1.79-2.235 2.411-2.326 2.458a.445.445 0 0 1-.437-.002z" fill="#fff"/><path d="M49.15 983.428a.236.236 0 0 1-.088-.103c-.022-.052-.03-.947-.03-3.132v-3.06l.08-.097.08-.097h2.059l.066.083.066.084v1.833c0 1.009.008 1.864.017 1.901l.017.067h10.958v-3.716l.061-.103a.356.356 0 0 1 .14-.133c.049-.019.446-.03 1.007-.03.996 0 1.073.01 1.148.153.03.056.038.628.044 2.997.005 1.61 0 3-.009 3.087-.012.111-.037.182-.082.23l-.065.071-7.705-.002c-5.247-.002-7.724-.012-7.763-.033z" fill="#fff"/><path d="M150.64 972.767c-.01-.023-.013-.761-.008-1.64l.011-1.597.084-.143c.046-.078.142-.195.212-.26.196-.18.363-.215 1.003-.215h.55v.822c0 .514.014.83.037.842.02.01.036.048.036.083 0 .13.195.427.397.602.152.132.277.204.485.28.269.1.295.103.66.09.294-.012.413-.03.53-.084a.929.929 0 0 1 .184-.068c.018 0 .137-.084.265-.188.158-.129.27-.256.354-.402l.123-.214.012-.882.011-.881h1.964l.017.8c.015.758.02.813.107 1.029.05.125.113.253.14.283.16.182.454.406.649.493.215.098.243.102.656.104.375.002.453-.007.601-.07.094-.04.184-.071.201-.071.045 0 .509-.38.509-.417 0-.016.031-.068.07-.116.038-.047.103-.205.144-.351.063-.228.073-.368.073-.975v-.709H162.654l.012.769c.012.817.056 1.083.207 1.266.039.048.07.1.07.117 0 .034.47.416.512.416.016 0 .105.032.198.07.149.063.228.072.617.072.324 0 .45-.01.46-.04.008-.021.039-.04.068-.04.162 0 .555-.265.728-.49.222-.291.263-.486.281-1.356l.017-.784h1.964l.002.79c.002.859.024 1.01.182 1.254.124.19.496.523.585.523.016 0 .097.031.18.068.117.053.236.072.53.083.363.014.39.01.645-.085.145-.055.334-.15.419-.211.189-.137.384-.393.445-.584a.662.662 0 0 1 .075-.172c.017-.017.03-.399.03-.848v-.818h.638c.54 0 .659.01.78.058.179.072.347.21.43.349.158.27.162.327.163 1.944v1.544h-11.117c-9.155 0-11.12-.007-11.135-.041z" fill="#fff" stroke="#fff" stroke-width=".468"/><path d="M153.922 970.606a.594.594 0 0 1-.171-.14c-.026-.043-.035-.568-.028-1.646l.01-1.582.132-.114c.118-.1.155-.114.316-.114.162 0 .2.013.316.114l.133.114v3.19l-.09.085c-.198.188-.4.219-.617.093zM158.983 970.605a.467.467 0 0 1-.17-.159c-.02-.047-.035-.715-.035-1.627v-1.547l.08-.091c.138-.158.176-.174.397-.162.185.01.219.023.313.12l.105.109.002 1.578c.002 1.744.012 1.665-.23 1.797-.154.084-.294.078-.461-.018zM163.992 970.565l-.15-.122v-3.217l.122-.108c.106-.093.146-.108.298-.108.21 0 .31.055.407.223.07.12.071.18.062 1.64-.01 1.683 0 1.616-.253 1.752-.18.097-.314.08-.486-.06zM169.088 970.607c-.224-.14-.221-.121-.21-1.83l.01-1.55.134-.108c.11-.09.162-.109.288-.108.185.001.296.052.388.176.066.088.07.164.07 1.64 0 1.713.007 1.668-.234 1.793-.166.086-.292.083-.446-.013zM151.164 985.947a1.125 1.125 0 0 1-.282-.195c-.301-.28-.273.328-.284-6.166l-.01-5.793H172.785l-.01 5.793c-.009 5.348-.014 5.802-.07 5.91-.077.151-.355.397-.514.456-.106.039-1.578.045-10.513.044-9.201-.002-10.403-.007-10.515-.05zm19.488-1.726a.676.676 0 0 0 .19-.115l.093-.081v-.829c0-.544-.015-.866-.042-.94a10.687 10.687 0 0 1-.116-.338 2.272 2.272 0 0 0-.145-.349 4.08 4.08 0 0 1-.11-.2 5.14 5.14 0 0 0-.374-.543c-.245-.323-.823-.768-1.332-1.024a4.081 4.081 0 0 1-.195-.102c-.01-.007.048-.072.127-.146.865-.814 1.034-1.947.433-2.908-.186-.299-.656-.76-.773-.76-.022 0-.04-.013-.04-.03 0-.047-.429-.238-.755-.337-.284-.085-.343-.092-.844-.092-.433 0-.566.01-.678.055a.793.793 0 0 1-.197.055c-.074 0-.587.232-.756.342-.563.366-.93.898-1.087 1.576-.02.087-.03.315-.02.507.018.38.092.64.286.998.116.215.437.595.573.68.044.026.072.052.063.056l-.087.048c-.04.022-.137.07-.216.108-.212.1-.622.38-.839.57a3.847 3.847 0 0 0-.778.972c-.356.627-.457 1.083-.44 1.994l.01.608.108.1c.06.056.14.113.18.127.109.04 7.64.038 7.761-.003zm-12.621-1.164a.53.53 0 0 0 .178-.176c.064-.11.07-.195.075-.927l.006-.807h.934c.903 0 .937-.003 1.049-.07a.647.647 0 0 0 .19-.206c.072-.13.076-.187.076-1.033 0-.866-.003-.9-.081-1.037a.524.524 0 0 0-.225-.213c-.138-.068-.179-.07-1.041-.071h-.899l-.008-.811c-.008-.766-.012-.818-.084-.92a.617.617 0 0 0-.215-.172c-.128-.058-.214-.062-1.19-.062-.961 0-1.065.007-1.205.062-.084.034-.152.075-.152.092s-.029.056-.063.087c-.056.05-.064.145-.074.89l-.011.834h-.875c-.79 0-.89.007-1.04.062-.09.035-.164.076-.164.093s-.028.056-.063.086c-.057.05-.064.153-.073 1.058l-.01 1.002.11.135c.06.074.151.148.201.164.05.017.501.031 1.003.031h.912l.01.835.01.834.103.119a.59.59 0 0 0 .18.146c.042.015.584.028 1.203.03 1.01.001 1.137-.005 1.233-.054z" fill="#fff" stroke="#fff" stroke-width=".468"/><path d="M156.366 981.393c-.013-.89-.017-.912-.205-1.057-.094-.074-.1-.074-1.073-.075l-.979-.002v-.76h1.874l.139-.088c.225-.142.23-.16.243-1.062l.012-.816h.857v.793c0 .904.013.96.248 1.091l.146.081H159.46v.758l-.961.009-.96.009-.104.08c-.19.144-.202.211-.202 1.076v.793h-.857l-.011-.832zM166.23 979.328c-.61-.171-1.065-.631-1.173-1.185-.058-.297 0-.67.139-.914.187-.326.534-.614.877-.727.087-.028.195-.068.24-.087.046-.02.224-.035.396-.035.545 0 1 .192 1.363.575.083.088.152.168.152.178 0 .01.044.101.098.202.092.169.1.212.097.563-.002.358-.008.393-.113.591a1.398 1.398 0 0 1-.388.48 1.95 1.95 0 0 1-.679.36c-.227.053-.817.053-1.009 0zM163.627 983.152c.002-.489.18-1.177.363-1.407a.33.33 0 0 0 .068-.114c0-.046.35-.444.516-.587.293-.252.815-.518 1.261-.645.305-.086.36-.092.938-.092.394 0 .632.013.664.035.028.02.131.053.23.074.554.119 1.334.64 1.663 1.112.133.19.318.548.36.697.113.392.15.596.15.826v.252h-6.213v-.15z" fill="#fff" stroke="#fff" stroke-width=".468"/><path d="M47.337 910.894a7.16 7.16 0 0 1-.402-.123c-.767-.255-1.28-.675-1.661-1.363-.295-.531-.28-.11-.267-7.783.011-6.58.016-6.974.093-7.166.183-.454.574-.847 1.055-1.06l.318-.14h3.889c3.659 0 3.9.005 4.091.077.477.183.72.321.998.568.309.274.45.493.751 1.162.09.199.213.459.275.578.061.12.111.232.111.25 0 .02.06.155.135.301.074.147.148.316.164.377.017.064.07.119.127.131.053.011 2.398.027 5.211.035 3.611.01 5.177.028 5.328.062.412.093.876.336 1.227.642.185.162.376.363.424.447.048.084.101.153.118.153.016 0 .076.12.133.266.057.146.12.284.138.308.113.14.133.916.133 5.208 0 4.304-.02 5.07-.134 5.208a1.39 1.39 0 0 0-.11.256c-.203.582-.912 1.233-1.574 1.445-.138.045-.28.1-.314.125-.064.045-20.059.08-20.257.036zm20.058-1.03c.155-.043.352-.12.437-.17a1.86 1.86 0 0 0 .627-.672c.053-.111.12-.24.148-.288.036-.06.054-1.417.063-4.796.012-4.591.01-4.718-.078-4.983-.123-.373-.192-.487-.444-.732a1.705 1.705 0 0 0-.91-.477c-.168-.029-2.062-.044-5.503-.044-4.864 0-5.256-.005-5.378-.073a.553.553 0 0 1-.195-.202 28.765 28.765 0 0 1-.439-.937 6.05 6.05 0 0 0-.226-.468.601.601 0 0 1-.068-.148c-.019-.059-.1-.24-.181-.404a4.808 4.808 0 0 1-.182-.404c-.09-.275-.496-.658-.773-.731a.914.914 0 0 1-.226-.084c-.023-.02-1.68-.034-3.682-.033h-3.639l-.19.094c-.227.113-.457.372-.492.556-.014.073-.02 3.213-.013 6.978l.013 6.845.148.27a1.8 1.8 0 0 0 1.11.894c.284.084.407.085 10.039.087 9.437.001 9.76 0 10.034-.078z" fill="#fff" stroke="#fff" stroke-width=".5"/><path d="M56.584 907.618l-.709-.012-.03-.772c-.016-.424-.03-.978-.03-1.231v-.461h-2.614l.004-1.275c.001-.701.013-1.284.026-1.296.013-.012.6-.035 1.304-.05l1.28-.029v-2.452h2.819v1.21c0 .885.014 1.217.054 1.24.03.017.628.035 1.33.04l1.275.008.014.994c.008.547.001 1.132-.015 1.302l-.03.308h-2.628v2.509l-.67-.01c-.37-.005-.99-.016-1.38-.023zM67.487 896.204l-.352-.084v-2.477c0-1.931-.013-2.488-.057-2.521-.038-.03-2.886-.042-8.717-.037l-8.66.006-.013.35-.013.351h8.227c5.099 0 8.27.015 8.34.04a.356.356 0 0 1 .166.132c.037.064.053.665.053 2.053 0 1.08-.001 1.996-.004 2.037-.004.064-.053.075-.367.075h-.363l-.012-1.797-.012-1.796-9.104-.011-9.103-.01v-.223c0-.172.026-.253.11-.351l.109-.128.591-.013.591-.014.033-.402c.017-.22.02-.457.005-.526-.033-.156.045-.372.154-.427.053-.027 3.386-.042 9.332-.042 9.038 0 9.252.001 9.357.082l.107.081.012 2.873c.007 1.58-.003 2.871-.023 2.868-.019-.002-.193-.043-.387-.09z" fill="#fff" stroke="#fff" stroke-width=".5"/></g></svg>