<svg xmlns="http://www.w3.org/2000/svg" width="220" height="220"><path d="M165.126 183.889L128.75 147.37l2.13-2.155c1.173-1.186 2.132-2.297 2.132-2.47 0-.382-8.915-9.356-9.294-9.356-.149 0-1.178.716-2.288 1.591-6.127 4.834-14.092 8.951-22.357 11.556-14.49 4.568-29.604 4.573-44.058.018-26.778-8.44-46.21-31.06-50.658-58.965-.887-5.566-.802-18.334.158-23.908.931-5.4 1.366-7.088 3.15-12.228C14.33 32.249 29.252 16.282 48.109 8.179 53.01 6.073 54.812 5.5 61.2 4.022c14.99-3.469 30.356-2.016 44.999 4.255 22.285 9.544 39.003 30.539 43.096 54.122.796 4.586 1.428 10.592 1.43 13.602.007 5.662-1.55 15.974-3.268 21.66-2.606 8.62-8.274 19.29-13.234 24.914-.84.952-1.527 1.811-1.527 1.91 0 .098 2.103 2.286 4.673 4.861l4.672 4.683 2.204-2.23 2.204-2.23 36.422 36.564 36.423 36.562-8.822 8.856c-4.851 4.87-8.854 8.856-8.895 8.856-.04 0-16.443-16.433-36.45-36.518zm-77.67-45.554c5.254-.88 12.523-3.285 17.51-5.796 11.144-5.61 20.277-14.268 26.587-25.203 1.125-1.95 2.504-4.71 3.066-6.134.56-1.424 1.28-3.18 1.596-3.903.317-.723.921-2.652 1.342-4.287 2.466-9.58 2.761-20.8.8-30.424-.845-4.151-1.096-4.953-3.177-10.146-3.658-9.13-8.662-16.316-16.03-23.019-4.922-4.479-8.616-6.999-14.294-9.751-1.827-.886-3.678-1.8-4.113-2.03-1.326-.702-6.67-2.318-9.99-3.022-7.035-1.49-8.838-1.664-15.318-1.479-3.393.097-6.739.31-7.435.474-.696.163-2.689.6-4.429.972-5.943 1.269-8.22 2.077-14.71 5.225-13.485 6.54-24.98 19.237-30.369 33.546-1.731 4.597-2.293 6.491-2.97 10.004-1.97 10.23-1.357 22.792 1.535 31.44 3.622 10.832 8.344 18.554 16.015 26.192 10.228 10.183 22.67 16.059 37.934 17.916 2.433.297 13.567-.093 16.45-.575z" fill="#53c0ab" stroke="#53c0ab"/><path d="M59.305 111.023l.445-1.139 1.68-.004 1.682-.004 1.514-1.511c.832-.832 1.514-1.626 1.514-1.766 0-.2-3.215-.256-14.614-.26-14.242-.005-14.637-.015-15.556-.427-.518-.233-1.252-.72-1.63-1.08-1.357-1.302-1.303-.178-1.303-27.19 0-16.44.073-24.809.222-25.498.139-.642.489-1.336.936-1.853 1.403-1.626-.77-1.505 26.896-1.505h24.743l.004.571c.002.315.284 1.078.628 1.696.344.618.625 1.156.625 1.195 0 .039-11.165.07-24.81.07H37.47l-.07 3.793c-.038 2.085-.022 12.3.036 22.7l.105 18.91 34.412.052 34.412.053V74.364l.743-.204c1.104-.302 2.522-1.19 3.028-1.895.246-.342.55-.622.677-.622.166 0 .192 4.342.095 15.58-.116 13.48-.179 15.685-.463 16.36-.457 1.084-1.077 1.695-2.3 2.267l-1.047.49-14.613.004c-8.038 0-14.614.077-14.614.17 0 .093.723.887 1.606 1.766l1.606 1.598h3.034l.334.972c.184.535.334 1.049.334 1.143 0 .094-5.833.17-12.962.17H58.86l.444-1.139z" fill="#787d7b" stroke="#787d7b" stroke-width=".104"/><path d="M58.901 94.22c-.84-.379-1.7-1.413-2.001-2.41-.66-2.185 1.027-4.375 3.37-4.374 1.194 0 2.206.508 3.015 1.512 1.206 1.496.788 3.555-1.005 4.954-.734.572-2.453.734-3.379.318z" fill="#f89e3d" stroke="#f89e3d"/><path d="M63.08 80.131c-.44-.211-.44-.212.253-2.427.38-1.219.877-2.73 1.103-3.359.802-2.229 3.8-11.536 3.8-11.792-.002-.333.448-.333.898 0 .321.238.247.573-.89 4l-1.689 5.09c-.246.744-.977 3.011-1.623 5.04-.647 2.028-1.229 3.682-1.294 3.674-.064-.007-.315-.11-.557-.226zM61.059 86.647c-.317-.038-.575-.134-.573-.212.006-.263.997-3.252 1.34-4.038.357-.822.464-.888.948-.584.253.159.192.554-.393 2.542-.381 1.294-.705 2.356-.72 2.358-.014.004-.285-.027-.602-.066z" fill="#f89e3d" stroke="#f89e3d" stroke-width=".5"/><path d="M80.7 89.159c-.636-.343-4.427-1.951-9.008-3.822-1.383-.565-2.9-1.21-3.37-1.435-.47-.225-2.073-.912-3.561-1.527-6.002-2.48-8.19-3.409-8.925-3.788-.697-.36-.746-.44-.523-.85.246-.451.254-.449 3.18.748a570.16 570.16 0 0 1 5.761 2.403c1.556.66 4.125 1.75 5.71 2.42l5.76 2.438c1.585.67 3.583 1.514 4.44 1.874.857.36 1.592.69 1.633.73.12.118-.183 1.165-.334 1.155-.073-.005-.417-.16-.762-.346z" fill="#53c0ab" stroke="#53c0ab" stroke-width=".5"/><path d="M74.939 77.01a435.607 435.607 0 0 0-3.876-2.032c-1.623-.838-4.249-2.26-4.471-2.42-.184-.133.242-.93.467-.874.753.188 10.182 5.222 10.17 5.43a2.419 2.419 0 0 1-.157.599c-.125.31-.394.22-2.133-.704zM56.083 67.168c-4.667-2.44-8.569-4.47-8.671-4.51-.103-.04-.055-.31.105-.601l.29-.529 5.343 2.79c2.938 1.536 6.38 3.325 7.647 3.978a119.69 119.69 0 0 1 3.352 1.785l1.092.622c.158.086-.244.937-.435.922-.13-.01-4.056-2.016-8.723-4.457zM83.248 74.914c-.335-.243-.262-.566.999-4.415.748-2.285 1.513-4.695 1.7-5.357.305-1.078.387-1.19.794-1.068.25.075.517.196.594.269.077.072-.42 1.81-1.104 3.86-.683 2.05-1.444 4.458-1.691 5.35-.453 1.641-.638 1.836-1.292 1.361zM87.336 62.547c-.344-.056-.45-.176-.36-.409.07-.18.595-1.833 1.166-3.671 1.779-5.728 1.877-5.969 2.384-5.814.242.073.47.159.506.19.158.136-2.797 9.402-3.085 9.669-.068.063-.342.079-.61.035z" fill="#eec84c" stroke="#eec84c" stroke-width=".5"/><path d="M87.667 85.838c-.202-.052-.367-.115-.367-.14 0-.025.48-1.21 1.066-2.634.587-1.424 1.662-4.039 2.39-5.81.727-1.771 1.843-4.483 2.48-6.026l2.482-6.012c.728-1.764 1.422-3.238 1.542-3.275.12-.038.37.05.557.194.376.29.089 1.105-2.874 8.158-.768 1.829-1.896 4.54-2.507 6.026-.61 1.486-1.693 4.104-2.405 5.818-.712 1.714-1.346 3.28-1.408 3.48-.115.364-.268.4-.956.221zM103.151 55.265c-.34-.374-.267-.469 1.728-2.24a217.54 217.54 0 0 1 3.692-3.2c.885-.742 2.33-1.986 3.211-2.765 2.056-1.815 2.194-1.89 2.632-1.41.4.438.583.229-2.588 2.963-.972.839-2.394 2.086-3.161 2.771-1.875 1.677-4.8 4.143-4.999 4.213-.088.031-.32-.118-.515-.332z" fill="#53c0ab" stroke="#53c0ab" stroke-width=".5"/><path d="M115.584 54.907c-2.362-.615-5.12-1.327-6.128-1.584-1.009-.256-1.833-.526-1.833-.599 0-.073.187-.301.417-.507.403-.362.47-.36 1.938.066.836.242 3.076.814 4.977 1.271 4.026.968 5.267 1.33 5.25 1.53-.006.08-.012.331-.012.56 0 .229-.07.408-.157.398-.086-.009-2.09-.52-4.452-1.135zM103.328 51.788c-.922-.28-2.879-.805-4.348-1.165-2.03-.498-2.67-.735-2.668-.986.008-.856.263-.87 2.838-.152 1.376.383 3.61.964 4.965 1.29l2.463.592-.578.469c-.706.573-.623.575-2.672-.048z" fill="#eec84c" stroke="#eec84c" stroke-width=".5"/><path d="M114.589 69.41l-4.662-.06V68.045l5.062.137c2.785.075 6.461.137 8.171.137h3.109V69.566l-3.51-.048-8.17-.108z" fill="#f89e3d" stroke="#f89e3d" stroke-width=".5"/><path d="M130.145 72.482c-2.32-.525-3.467-2.932-2.42-5.076.628-1.288 1.6-1.857 3.165-1.857 1.304 0 2.038.33 2.865 1.292 2.104 2.446-.405 6.366-3.61 5.64zM104.166 71.754c-1.033-.366-2.13-1.572-2.428-2.672-.292-1.074.179-2.365 1.181-3.238 2.01-1.75 4.89-.996 5.865 1.536.295.766.309 1.027.088 1.701-.744 2.277-2.695 3.385-4.706 2.673z" fill="#f89e3d" stroke="#f89e3d"/><path d="M91.036 65.1c-2.15-.594-4.178-1.186-4.504-1.316-.327-.13-2.244-.7-4.26-1.266a595.13 595.13 0 0 1-5.575-1.591l-1.909-.563.22-.576c.217-.57.228-.573.978-.276.417.166 2.545.801 4.727 1.412 7.35 2.059 10.033 2.832 12.4 3.572 2.267.71 2.347.755 2.119 1.19a7.19 7.19 0 0 1-.26.473c-.014.012-1.785-.465-3.936-1.059z" fill="#f89e3d" stroke="#f89e3d" stroke-width=".5"/><path d="M68.742 61.297c-1.157-.836-1.628-1.866-1.508-3.3.114-1.366.601-2.084 1.851-2.73 1.191-.616 2.568-.533 3.721.224.99.65 1.504 1.662 1.504 2.965 0 1.903-1.38 3.254-3.456 3.381-1.128.07-1.346.014-2.112-.54z" fill="#f89e3d" stroke="#f89e3d"/><path d="M49.894 79.15c-.944-.426-1.914-1.452-2.112-2.235-.218-.862.046-2.567.49-3.157.689-.917 1.7-1.38 3.011-1.38 2.064 0 3.543 1.414 3.543 3.387 0 1.598-.72 2.705-2.2 3.382-1.054.483-1.664.483-2.732.002z" fill="#98d9cd" stroke="#98d9cd"/><path d="M41.596 62.913c-.895-.469-1.645-1.817-1.645-2.958 0-3.033 3.55-4.754 5.789-2.805.97.845 1.334 1.6 1.334 2.764 0 1.341-.513 2.295-1.564 2.906-1.109.644-2.786.684-3.914.094z" fill="#eec84c" stroke="#eec84c"/><path d="M84.472 93.168c-3.437-1.515-2.099-6.771 1.723-6.771.995 0 2.417.845 3.002 1.785.626 1.004.64 2.677.029 3.657-.886 1.42-3.125 2.047-4.754 1.33z" fill="#98d9cd" stroke="#98d9cd"/><path d="M79.573 82.069c-1.062-.579-1.698-1.768-1.7-3.174-.002-1.46.572-2.389 1.878-3.044 1.189-.595 2.213-.592 3.378.008 1.067.551 1.87 1.865 1.862 3.048-.007 1.047-.669 2.357-1.481 2.93-.943.667-2.924.782-3.937.23zM122.897 59.732c-1.32-.69-1.905-1.763-1.809-3.312.087-1.396.533-2.112 1.744-2.799 2.386-1.353 5.323.27 5.323 2.941 0 2.886-2.695 4.511-5.258 3.17z" fill="#eec84c" stroke="#eec84c"/><path d="M116.51 46.218c-.849-.382-1.94-1.715-2.101-2.568-.227-1.198.096-2.16 1.04-3.095 1.539-1.527 3.3-1.609 4.886-.227 1.819 1.583 1.705 3.984-.26 5.47-.896.678-2.556.874-3.565.42zM97.723 61.058c-.534-.336-1.124-.903-1.31-1.26-.38-.73-.453-2.326-.142-3.128.292-.752 1.46-1.707 2.503-2.049 2.103-.688 4.449 1.127 4.449 3.444 0 2.83-3.087 4.51-5.5 2.993z" fill="#98d9cd" stroke="#98d9cd"/><path d="M90.338 51.515c-2.633-1.622-2.66-4.855-.051-6.144 1.185-.586 1.829-.651 2.9-.295 1.455.483 2.332 1.725 2.332 3.3 0 1.399-.729 2.592-1.976 3.236-.81.418-2.45.368-3.205-.097z" fill="#eec84c" stroke="#eec84c"/><path d="M98.58 67.304l-2.024-.543.292-.553.293-.553 1.835.501c1.009.276 1.893.5 1.964.5.162 0-.024 1.02-.204 1.119-.073.04-1.043-.172-2.156-.471z" fill="#f89e3d" stroke="#f89e3d" stroke-width=".5"/><path d="M164.793 184l-36.674-36.675 2.225-2.225 2.226-2.225-1.935-2.182c-1.063-1.2-3.058-3.239-4.432-4.531l-2.498-2.35-.972.733c-10.594 7.989-21.077 12.577-33.864 14.822-4.807.844-13.828 1.137-18.943.615-17.263-1.762-32.805-9.107-44.995-21.265C14.753 118.566 7.96 106.14 4.82 91.94c-1.056-4.776-1.438-8.898-1.435-15.47.004-9.13.791-15.22 2.824-21.855 6.133-20.019 19.798-36.04 38.587-45.239 10.266-5.026 20.676-7.43 32.282-7.452 11.719-.023 21.871 2.35 32.58 7.614 11.892 5.846 21.558 14.364 29.067 25.618 4.34 6.504 8.432 15.89 10.158 23.3 2.234 9.596 2.649 19.746 1.176 28.776-1.488 9.12-2.992 13.944-6.741 21.619-2.496 5.107-5.715 10.29-8.311 13.379l-1.856 2.209 4.465 4.456 4.464 4.457 2.178-2.161 2.178-2.161 14.91 14.89c8.201 8.188 24.702 24.776 36.669 36.86l21.757 21.973-8.047 8.07c-4.426 4.438-8.544 8.47-9.153 8.96l-1.106.89L164.793 184zm-75.49-46.43c3.952-.862 10.678-3.141 14.212-4.815 6.304-2.987 11.513-6.623 16.65-11.624 5.479-5.334 9.376-10.6 12.593-17.016 4.684-9.342 6.356-16.848 6.34-28.465-.013-9.056-.989-14.607-3.842-21.852-3.62-9.192-7.866-15.713-14.427-22.161-5.604-5.508-9.588-8.324-16.94-11.976-5.157-2.563-8.79-3.747-15.883-5.178-9.27-1.87-20.243-1.114-30.392 2.093-3.74 1.182-11.26 4.854-14.98 7.312-15.062 9.96-25.532 26.95-27.443 44.536-.422 3.879-.42 11.53.003 15.384 2.187 19.9 15.222 38.659 33.346 47.985 5.453 2.806 12.28 5.055 18.918 6.233 3.885.689 17.946.396 21.846-.455z" fill="none" stroke="#454c51" stroke-width=".8"/><path d="M59.378 111.102c.394-.942.534-1.015 2.105-1.1 1.556-.085 1.795-.207 3.195-1.628.975-.99 1.405-1.642 1.212-1.836-.183-.182-6.028-.335-14.904-.39l-14.603-.089-1.29-.854c-.757-.5-1.389-1.206-1.529-1.706-.13-.47-.238-12.303-.238-26.297V51.757l.72-1.009c.395-.555 1.024-1.183 1.396-1.396.52-.298 6.35-.41 25.345-.487l24.669-.099.669 1.727.668 1.726-24.716.08-24.717.079-.098 11.791c-.054 6.485-.003 16.714.114 22.73l.211 10.937h68.814V74.572l1.146-.479c.631-.263 1.62-.84 2.198-1.28l1.05-.801-.103 15.641c-.115 17.544 0 16.702-2.422 17.937-1.175.6-1.806.624-15.614.624-7.914 0-14.486.097-14.604.215-.118.118.517.956 1.412 1.862 1.504 1.523 1.735 1.647 3.08 1.647 1.323 0 1.483.08 1.766.893.308.884.298.894-1.1 1.086-.775.106-6.55.193-12.832.193H58.955l.423-1.008z" fill="none" stroke="#454c51" stroke-width=".5"/><path d="M41.628 63.385c-1.033-.416-1.939-2.115-1.94-3.642-.002-2.731 3.11-4.61 5.547-3.35 1.94 1.003 2.75 3.502 1.758 5.423-.798 1.541-3.48 2.326-5.365 1.569zM78.652 81.725c-.989-1.032-1.369-3.06-.833-4.446.697-1.805 3.639-2.653 5.63-1.624 1.694.876 2.342 3.266 1.388 5.112-.717 1.385-1.638 1.865-3.581 1.865-1.513 0-1.847-.116-2.604-.907zM89.298 51.018c-1.046-1.045-1.205-1.39-1.205-2.614 0-3.575 4.434-5.22 6.803-2.522.727.828.954 1.385.954 2.333 0 2.502-1.523 4.008-4.054 4.008-1.089 0-1.484-.19-2.498-1.205zM123.157 60.252c-2.008-.8-2.869-2.725-2.207-4.935.883-2.946 5.593-3.364 7.01-.622 1.729 3.342-1.37 6.926-4.803 5.557zM49.42 79.244c-1.45-.884-1.976-1.827-1.976-3.539 0-1.307.144-1.657 1.055-2.568.898-.897 1.271-1.055 2.498-1.055.794 0 1.852.212 2.353.47 1.787.924 2.38 3.469 1.244 5.333-1.143 1.874-3.37 2.459-5.174 1.359zM83.986 93.317c-1.733-.94-2.298-3.485-1.18-5.317 1.494-2.452 4.658-2.555 6.5-.213.805 1.022.88 3.375.143 4.428-1.02 1.457-3.782 2.014-5.463 1.102zM96.906 60.787c-.944-.944-1.056-1.235-1.056-2.76 0-1.563.092-1.786 1.092-2.665 1.369-1.201 2.361-1.457 3.886-1 2.173.651 3.326 3.288 2.343 5.358-.661 1.395-1.948 2.122-3.753 2.122-1.244 0-1.612-.155-2.512-1.055zM116.453 46.515c-.932-.416-1.986-1.628-2.391-2.751-.572-1.585 1.299-4.302 3.228-4.688 2.037-.407 4.625 1.675 4.625 3.722 0 2.859-2.924 4.849-5.462 3.717z" fill="none" stroke="#454c51" stroke-width=".5"/></svg>