<svg xmlns="http://www.w3.org/2000/svg" width="220" height="220"><path d="M85.801 139.698c-2.04-.579-3.062-1.353-4.567-3.461-.844-1.183-1.704-2.709-1.91-3.39-.206-.683-.386-3.158-.4-5.502l-.026-4.261 1.726-.958c.949-.527 2.785-1.495 4.079-2.15a186.819 186.819 0 0 0 5.49-2.951c1.727-.966 4.021-2.189 5.1-2.716 1.078-.528 1.96-1.105 1.96-1.283 0-.178-.547-1.178-1.217-2.222-2.415-3.762-3.503-9.143-2.9-14.347.475-4.108 1.332-6.49 3.126-8.684 1.709-2.092 3.411-3.177 6.69-4.262 2.025-.67 2.797-.761 6.382-.76 3.414 0 4.412.109 6.119.664 3.268 1.063 4.85 1.931 6.268 3.442 2.267 2.416 3.186 4.662 3.91 9.551.43 2.905.42 3.348-.133 6.284-.754 4.006-1.61 6.422-2.991 8.435-.6.876-1.092 1.734-1.092 1.908 0 .173.882.748 1.96 1.278 1.998.98 4.097 2.098 9.963 5.305 1.812.991 4.052 2.17 4.977 2.62l1.681.82-.141 4.421c-.112 3.488-.28 4.778-.791 6.106-.817 2.12-2.932 4.687-4.601 5.586l-1.282.69-23.22.052c-13.145.03-23.627-.064-24.16-.215zm47.467-5.217c.987-.812 1.325-2.272 1.325-5.714v-3.194l-1.647-.78c-.906-.429-2-1.012-2.432-1.296-.431-.284-1.773-1.005-2.98-1.601-2.104-1.039-3.86-1.987-7.736-4.175-.975-.551-2.016-1.002-2.315-1.002-.298 0-1.265.385-2.149.856-3.298 1.757-8.29 1.766-11.888.021-.994-.482-2.025-.877-2.29-.877-.416 0-2.413 1.034-6.726 3.482a71.61 71.61 0 0 1-2.667 1.409c-.863.432-2.557 1.335-3.765 2.008-1.209.673-2.585 1.408-3.06 1.634-.861.41-.863.416-.863 3.613 0 3.33.435 5.022 1.483 5.763.405.287 5.663.369 23.802.369 21.724 0 23.323-.035 23.908-.516zm-20.289-20.864c1.854-.594 4.51-2.812 5.447-4.548 1.909-3.54 2.199-4.841 2.201-9.89.003-5.635-.49-7.523-2.456-9.38-1.853-1.75-2.925-2.057-7.714-2.206-4.841-.15-6.724.15-8.88 1.419-1.805 1.061-2.597 2.416-3.23 5.52-1.125 5.524.029 12.231 2.687 15.628 1.063 1.357 3.398 3.066 4.849 3.547 1.428.474 5.496.422 7.096-.09z" fill="none" stroke="#000" stroke-width=".7"/><path d="M63.792 116.084l-1.211-1.26 2.345-2.476c1.29-1.362 2.378-2.564 2.416-2.67.073-.205-8.544-.532-14.01-.533h-3.187v-4.1h8.626c5.434 0 8.626-.092 8.626-.25 0-.137-1.064-1.386-2.365-2.775l-2.365-2.525 1.244-1.255 1.243-1.255 4.997 5.117 4.997 5.116-4.936 5.064c-2.714 2.784-4.997 5.063-5.072 5.063-.075 0-.682-.567-1.348-1.26zM146.843 112.281l-4.936-5.063 5.011-5.123 5.01-5.122 1.116 1.202c.613.661 1.115 1.326 1.115 1.477 0 .15-.984 1.318-2.188 2.593-1.203 1.276-2.225 2.427-2.27 2.56-.052.146 3.34.24 8.688.24h8.772v4.042l-8.751.19c-4.813.103-8.751.258-8.751.344 0 .085 1.093 1.28 2.43 2.655l2.431 2.5-1.234 1.285c-.678.706-1.295 1.283-1.37 1.283-.075 0-2.358-2.278-5.073-5.063zM106.403 158.194c0-5.522-.09-8.83-.24-8.776-.13.046-1.31 1.1-2.619 2.34-2.643 2.503-2.58 2.49-4.134.835l-.868-.924 4.992-5.12 4.99-5.12 4.998 5.122 4.997 5.121-1.225 1.275-1.226 1.275-2.464-2.424c-1.355-1.333-2.573-2.423-2.707-2.423-.154 0-.244 3.271-.244 8.84v8.84h-4.25v-8.861zM103.527 68.08l-4.995-4.935 1.309-1.291 1.31-1.292 2.442 2.402c1.344 1.32 2.526 2.401 2.627 2.401.1 0 .183-3.823.183-8.495v-8.496l-.688-.103c-.378-.056.578-.12 2.125-.14l2.813-.037v8.636c0 4.75.074 8.635.164 8.635.09 0 1.282-1.07 2.649-2.38l2.485-2.379 1.284 1.267 1.284 1.267-1.62 1.663c-4.225 4.334-8.115 8.21-8.239 8.21-.075 0-2.385-2.22-5.133-4.934z" fill="#effbda"/><path d="M9.95 129.018c-5.37-.904-8.919-5.8-7.371-10.17.671-1.896 9.288-19.16 11.06-22.159 1.362-2.307 1.62-2.595 3.117-3.49 2.046-1.22 4.55-1.822 6.802-1.634 3.261.273 6.596 2.245 8.093 4.784.867 1.47 1.064 4.291.413 5.92-.7 1.751-10.275 20.849-11.211 22.36-2.064 3.33-6.525 5.126-10.903 4.389zm15.59-16.692c.285-.46 1.608-2.999 2.941-5.64 2.14-4.242 2.437-4.998 2.543-6.477.095-1.335 0-1.932-.467-2.937-2.164-4.652-8.996-6.04-13.496-2.743-.637.467-1.444 1.308-1.794 1.868-1.145 1.833-5.684 10.997-5.577 11.26.086.216 14.52 5.456 15.13 5.494.11.006.434-.364.72-.825z" fill="#f89e3d" stroke="#98d9cd" stroke-width=".236"/><path d="M40.162 119.379c-4.914-1.725-9.052-3.227-9.196-3.336-.386-.294 2.485-2.455 4.116-3.1 1.066-.42 1.936-.562 3.855-.627 3.336-.113 5.072.402 7.27 2.154 2.191 1.748 3.092 3.363 3.267 5.861.076 1.082.023 1.984-.12 2.056-.142.071-4.278-1.283-9.192-3.008zM36.853 128.952c-4.381-1-7.393-4.127-7.64-7.931-.067-1.022-.013-1.94.12-2.041.23-.173 17.849 5.822 18.403 6.262.428.34-2.289 2.393-4.118 3.112-1.992.783-4.847 1.036-6.765.598z" fill="#f89e3d" stroke="#f89e3d" stroke-width=".496"/><path d="M187.211 127.357c-.088-.206-.115-.587-.06-.846.095-.443.827-.479 12.318-.601 11.697-.125 12.245-.153 12.857-.65 1.428-1.162 1.45-1.334 1.45-11.058v-9.128h-4.437c-4.147 0-4.532-.043-5.872-.647-.803-.362-1.738-1.05-2.124-1.563-.641-.851-.796-.916-2.205-.916-2.29 0-5.08-.306-5.08-.558 0-.122 1.436-.223 3.19-.223h3.19v-2.344h-3.19c-2.641 0-3.19-.067-3.19-.39 0-.324.549-.391 3.19-.391h3.19v-4.713l-7.562.077-7.562.078-.992.973-.992.973V104c0 7.706-.048 8.588-.476 8.735-.261.09-.718.095-1.014.01-.512-.145-.54-.603-.54-8.93 0-9.845-.01-9.787 2.16-11.366l1.083-.788 8.875-.076 8.876-.076 6.756 6.064 6.756 6.065v10.237c0 8.922-.06 10.345-.47 11.071-.667 1.184-1.26 1.73-2.49 2.294-1.006.46-1.877.493-13.275.493-10.357 0-12.224-.057-12.36-.375z" fill="#1e899e" stroke="#1e899e" stroke-width=".3"/><path d="M186.696 101.536c-.228-.532-.228-2.55 0-3.082.137-.32.62-.412 2.175-.412h1.998v1.795c0 2.058-.062 2.111-2.457 2.111-1.137 0-1.586-.108-1.716-.412zm3.248-1.606l.089-1.107h-1.14c-1.047 0-1.156.067-1.323.819-.237 1.062.246 1.574 1.39 1.473.829-.072.9-.16.984-1.185zM194.191 112.869a.417.417 0 0 1 .072-.53c.157-.14 3.54-.213 8.08-.172 6.713.06 7.809.124 7.809.46s-1.103.4-7.882.46c-5.51.048-7.94-.018-8.079-.218z" fill="#1e899e" stroke="#1e899e" stroke-width=".55"/><path d="M194.056 115.885c-.136-.148-.188-.355-.115-.46.088-.129 2.824-.193 8.225-.193 7.232 0 8.107.032 8.22.295a.373.373 0 0 1-.16.457c-.158.09-3.805.164-8.105.166-6.596.002-7.856-.04-8.065-.265zM181.644 127.765c-.605-.222-.936-.615-2.546-3.016-2.579-3.848-2.692-4.195-1.673-5.111.682-.612 1.686-.72 2.417-.26.243.153.78.778 1.195 1.39.413.612.845 1.084.96 1.05.113-.034.649-1.012 1.19-2.173.54-1.161 1.079-2.318 1.198-2.571l1.463-3.127c1.467-3.14 1.778-3.503 2.99-3.503.718 0 .96.098 1.4.566.291.312.53.772.53 1.022 0 .477-5.803 13.154-6.708 14.655-.353.586-.721.927-1.14 1.059-.71.222-.725.222-1.276.02z" fill="#1e899e" stroke="#1e899e" stroke-width=".389"/><path d="M106.441 200.296c-.3-.291-1.659-1.34-3.022-2.332-1.363-.99-2.747-2.122-3.075-2.513-1.916-2.285-1.605-4.642.756-5.727 1.809-.83 3.85-.496 5.259.863l.733.708.463-.591c.254-.325.894-.78 1.422-1.013 2.665-1.173 5.944.346 5.944 2.755 0 1.861-.908 3.055-4.074 5.36-1.252.912-2.633 1.963-3.07 2.338l-.792.681-.544-.53z" fill="red" stroke="red" stroke-width=".425"/><path d="M90.934 191.574c-.995-.764-1.035-1.636-.168-3.655 2.862-6.659 11.041-10.863 19.529-10.037 3.42.332 6.432 1.318 9.157 2.998.737.454 1.506.878 1.708.942.223.069 1.046-.402 2.092-1.201 1.684-1.287 1.728-1.306 1.916-.804.63 1.686 3.576 11.15 3.492 11.22-.098.08-14-2.84-14.238-2.99-.063-.042.684-.735 1.66-1.545l1.774-1.474-.894-.62c-.492-.342-1.862-1.022-3.045-1.51-2.09-.864-2.233-.891-5.037-.965-4.491-.117-7.174.724-10.175 3.189-1.695 1.391-2.524 2.474-3.494 4.559-1.169 2.514-2.627 3.159-4.277 1.893z" fill="#eec84c" stroke="#454c51" stroke-width=".7"/><path d="M106.489 209.594c-3.49-.284-6.846-1.444-9.442-3.264-.73-.512-1.402-.931-1.492-.931-.09 0-.885.586-1.765 1.303-1.008.82-1.689 1.228-1.838 1.101-.244-.207-3.858-11.266-3.722-11.388.067-.061 12.982 2.742 13.9 3.017.255.077-.169.553-1.405 1.58l-1.772 1.471.894.612c1.427.975 3.643 1.862 5.772 2.309 2.392.502 3.408.516 5.8.077 4.378-.802 7.464-2.777 9.305-5.957.568-.98 1.24-2.19 1.492-2.689.819-1.615 2.447-1.937 3.872-.767.825.678.886.81.732 1.602-.256 1.316-1.476 3.728-2.588 5.118-1.964 2.454-5.597 4.93-8.704 5.934-2.456.793-5.91 1.126-9.04.871z" fill="#eec84c"/><path d="M96.74 39.2c-.772-.166-.85-.428-.879-2.928l-.02-1.85-1.192-.582-1.19-.581-.783 1.345-.782 1.345-.576.227c-.317.126-1.491.506-2.61.845l-2.035.615-.403-.196c-.519-.252-.7-.598-.567-1.078.17-.604.381-.723 2.37-1.325l1.743-.528 1.536-2.853c.845-1.569 1.59-2.962 1.658-3.096l.122-.243-.376.116-.376.115-.726 1.37c-.4.752-.843 1.507-.985 1.677-.372.442-.732.531-1.16.285-.458-.262-.514-.544-.234-1.171.309-.694 1.49-2.92 1.75-3.302l.217-.316 2.129-.67c1.965-.618 2.122-.678 2.034-.783-.053-.062-.162-.303-.243-.536-.472-1.36 1.193-2.627 2.482-1.887 1.204.69.797 2.364-.68 2.798l-.465.137.99.484c.543.267 1.01.478 1.036.47.026-.006.418-.54.871-1.184.453-.644.899-1.193.99-1.22.477-.145 1.053.168 1.166.634.077.317-.161.785-1.183 2.314-1.218 1.823-1.348 1.878-2.775 1.17-.405-.2-.766-.334-.803-.298-.037.037-.356.604-.707 1.26l-.64 1.195 1.056.575c1.284.7 1.549.89 1.614 1.155.062.255.095 3.527.047 4.677-.044 1.068-.102 1.272-.435 1.543-.35.284-.608.356-.987.275zm.752-.758c.132-.34.164-1.013.162-3.376-.002-2.592.207-2.185-1.635-3.186l-1.235-.672.445-.846c.778-1.482 1.29-2.316 1.45-2.365.086-.025.59.142 1.12.373.53.23 1.017.403 1.08.384.344-.104 2.222-2.97 2.147-3.276-.05-.207-.24-.314-.447-.25-.083.024-.41.416-.727.87-.787 1.128-1.025 1.417-1.214 1.474-.09.027-.822-.258-1.644-.641l-1.483-.69-1.976.611c-1.724.534-1.993.635-2.11.794-.274.374-1.77 3.363-1.778 3.554a.282.282 0 0 0 .16.28c.283.138.5-.125 1.303-1.574.412-.744.836-1.459.942-1.587.324-.394 1.644-.7 1.717-.398.036.149-.39.996-2.06 4.091l-1.537 2.85-1.882.593-1.882.592-.165.34-.165.342.299.203.299.202 2.073-.627c3.012-.912 2.671-.688 3.674-2.419.464-.803.869-1.467.898-1.476.114-.034 2.967 1.423 2.992 1.528.015.06.044.953.064 1.982.043 2.173.096 2.499.417 2.589.317.09.602-.02.698-.27zm-.078-13.22c.41-.354.456-1.038.096-1.407-.205-.21-.774-.354-1.058-.267-.512.155-.926.842-.805 1.337.065.27.436.612.71.657.336.056.776-.078 1.057-.32z" fill="#df5b49" stroke="#df5b49" stroke-width=".5"/><path d="M112.601 36.328c-.615-.166-.787-.296-2.273-1.717a502.607 502.607 0 0 0-1.637-1.56c-1.726-1.631-2.006-2.004-2.007-2.668 0-.633.147-.916.768-1.47l.581-.517.04-.548c.05-.673.194-.932.823-1.472.644-.553 1.05-.715 1.797-.715.785 0 1.28.223 2.036.919.32.294.63.525.69.513.058-.013.58-.417 1.16-.899l1.147-.952c.052-.041.644-.534 1.315-1.093l1.221-1.017-.554-.532c-.712-.682-.989-1.19-.989-1.813 0-.644.283-1.153.906-1.63.705-.542 1.078-.682 1.796-.679l.6.003.461-.373c.677-.548.893-.63 1.641-.63.491 0 .725.038.987.162.344.162 1.213.93 3.045 2.69.543.522 1.224 1.177 1.515 1.454.632.604.886 1.02.947 1.545.075.65-.085.991-.74 1.587l-.583.528-.049.573c-.055.653-.223.936-.877 1.483-.627.524-1.01.674-1.717.674-.806 0-1.293-.217-2.055-.918-.32-.295-.631-.526-.691-.513-.06.013-1.176.907-2.48 1.988l-2.37 1.966.556.532c.665.638.932 1.096.98 1.682.053.655-.171 1.126-.795 1.67-.688.599-1.126.779-1.892.776l-.6-.004-.472.382c-.26.21-.626.445-.815.521-.352.142-1.027.176-1.416.07zm1.477-1.362c.344-.32.41-.43.41-.674 0-.16-.073-.394-.163-.52-.346-.487-4.475-4.341-4.793-4.475-.391-.165-.72-.122-1.113.144-.57.386-.755.872-.5 1.31.16.274 4.331 4.264 4.698 4.494.228.143.361.17.667.14.322-.03.447-.097.794-.42zm2.41-.708c.336-.152.827-.623.925-.886.102-.275.043-.729-.123-.94-.056-.07-.473-.483-.926-.917-.453-.434-.824-.823-.824-.865.001-.104 6.4-5.386 6.488-5.356.038.014.445.384.905.824.46.44.957.86 1.105.933.44.217.928.175 1.359-.117.725-.49.935-1.028.608-1.556-.182-.295-5.484-5.382-5.916-5.676a1.074 1.074 0 0 0-.686-.21c-.44 0-.646.081-1.04.41-.54.45-.67.926-.379 1.397.083.133.54.612 1.017 1.065l.866.822-3.22 2.666c-1.772 1.466-3.267 2.665-3.323 2.665-.056 0-.459-.341-.895-.758-.98-.937-1.121-1.037-1.54-1.087-.476-.056-.73.02-1.126.337-.574.46-.729.915-.482 1.41.09.18 1.437 1.506 3.543 3.486.334.315.978.928 1.43 1.363.453.435.932.855 1.065.933.272.16.88.189 1.17.057zM126.9 24.4c.601-.408.777-.92.469-1.366-.258-.372-4.542-4.424-4.779-4.52a1.703 1.703 0 0 0-.527-.088c-.259 0-.383.066-.768.408-.398.353-.458.446-.458.704 0 .164.073.4.162.526.278.394 4.462 4.333 4.752 4.474.355.173.76.124 1.149-.138z" fill="#df5b49" stroke="#df5b49" stroke-width=".162"/><path d="M107.389 18.913c-.525-.278-.542-.437-.506-5.004l.034-4.35.296-.238.296-.238h9.075l.263.212c.25.2.264.31.296 2.138l.033 1.927.622.106c.946.16 1.706.628 2.059 1.267.257.465.237 1.32-.041 1.783-.3.497-1.109 1.007-1.82 1.146-.317.062-.644.128-.728.146-.09.02-.153.19-.153.411 0 .289-.075.43-.323.603l-.323.226h-4.413c-3.671 0-4.455-.023-4.667-.135zm11.034-1.864c1.896-.929 1.08-3.168-1.154-3.168-.846 0-1.522.261-1.955.756a1.436 1.436 0 0 0 0 1.901c.671.767 2.105 1.003 3.109.511z" fill="#df5b49" stroke="#df5b49" stroke-width=".212"/><path d="M107.284 25.886c-1.23-.245-2.396-.996-2.956-1.902l-.342-.554-.062-6.181c-.061-6.052-.068-6.19-.321-6.602-1.105-1.794-4.245-1.795-5.343-.003-.229.374-.262.623-.298 2.198l-.04 1.776h-1.438l.027-2.053c.025-2.038.028-2.057.364-2.573.412-.634 1.217-1.213 2.144-1.541.605-.215.847-.246 1.914-.246 1.064 0 1.31.032 1.908.244 1.237.438 2.114 1.196 2.44 2.11.105.294.169 2.188.22 6.55.073 6.111.074 6.137.344 6.519.358.506 1.047.924 1.83 1.11.545.13.733.136 1.316.037.872-.147 1.612-.574 2.011-1.16.287-.42.317-.578.373-1.963.065-1.597.124-1.742.672-1.64.134.026.411.048.616.048l.372.001-.042 1.177c-.078 2.204-.38 3.04-1.365 3.78-.827.62-1.683.888-2.93.916-.576.012-1.213-.01-1.414-.05z" fill="#df5b49" stroke="#df5b49" stroke-width=".212"/><path d="M96.11 19.225c-1.1-.377-1.639-.996-1.639-1.884 0-1.766 2.682-2.728 4.481-1.608 1.245.776 1.338 2.294.192 3.102-.794.558-2.065.722-3.035.39z" fill="#df5b49" stroke="#df5b49" stroke-width=".212"/><path d="M117.34 16.054a1.08 1.08 0 0 1-.287-.298 2.333 2.333 0 0 0-.343-.39c-.106-.09-.173-.179-.15-.196.022-.017.198.034.39.113.191.079.465.167.608.196.444.089.568.406.225.576-.183.09-.27.09-.442 0zM118.733 15.596c0-.1.026-.115.214-.115.187 0 .213.014.213.115s-.026.116-.213.116c-.188 0-.214-.014-.214-.116zM117.084 14.305c0-.131.023-.162.122-.162s.122.03.122.162c0 .13-.023.161-.122.161s-.122-.03-.122-.161zM115.313 15.596c0-.1.027-.115.214-.115s.214.014.214.115-.027.116-.214.116-.214-.014-.214-.116z" fill="#df5b49" stroke="#df5b49" stroke-width=".106"/><path d="M115.394 16.857c0-.113.02-.14.102-.14.083 0 .103.027.103.14 0 .113-.02.14-.103.14-.083 0-.102-.027-.102-.14z" fill="#df5b49" stroke="#df5b49" stroke-width=".09"/><path d="M105.158 113.053c-4.635-2.29-6.82-6.804-6.825-14.101-.005-4.795.626-6.976 2.543-8.8 2.053-1.955 4.734-2.567 10.094-2.305 4.818.236 6.035.76 7.939 3.422 1.973 2.76 2.06 11.774.154 15.876-2.099 4.517-5.196 6.614-9.762 6.61-1.545-.001-3.342-.306-4.143-.702zM86.93 134.534c-1.9-.289-2.337-1.118-2.614-4.973l-.254-3.521 8.487-4.579 8.487-4.578 2.297.97c3.362 1.42 8.625 1.422 11.815.003l2.385-1.06 8.295 4.425 8.295 4.425.011 3.616c.018 5.885 2.362 5.348-23.634 5.41-12.27.03-22.876-.033-23.57-.139z" fill="#ebe9d3" stroke="#ebe9d3" stroke-width=".92"/><path d="M7.596 128.164c-1.037-.456-2.352-1.312-2.923-1.903-1.211-1.254-2.497-3.997-2.497-5.324 0-1.334 1.77-5.193 7.536-16.426 5.297-10.318 5.892-11.093 9.384-12.22 4.817-1.556 11.25.843 12.828 4.783 1.174 2.933.615 4.496-6.87 19.185-5.08 9.971-5.94 11.065-9.634 12.242-2.352.75-5.676.606-7.824-.337zm20.42-20.576c2.298-4.499 2.92-6.161 2.916-7.785-.008-2.674-1.475-4.796-4.234-6.123-3.923-1.887-8.667-.844-11.178 2.459-1.56 2.05-6.061 11.241-5.683 11.601.263.25 14.499 5.523 14.991 5.553.146.01 1.58-2.559 3.187-5.705zM39.645 119.306c-4.666-1.62-8.57-3.026-8.677-3.123-.373-.341 1.625-2.081 3.356-2.922 1.252-.608 2.744-.85 5.25-.85 3.168 0 3.715.139 5.774 1.458 2.665 1.71 3.761 3.345 4.211 6.282.29 1.894.23 2.13-.552 2.116-.483-.01-4.696-1.341-9.362-2.961zM35.74 128.617c-1.369-.453-3.04-1.307-3.714-1.897-1.58-1.386-2.962-4.253-2.975-6.177-.01-1.432.064-1.5 1.354-1.254 1.733.33 16.996 5.514 17.412 5.914.172.165-.324.786-1.102 1.38-3.383 2.584-7.184 3.289-10.974 2.034zM187.148 127.187c-.17-.263-.166-.616.01-.785.177-.169 5.811-.408 12.52-.531 10.888-.2 12.29-.31 13.041-1.025.743-.707.86-1.9 1-10.207l.16-9.406h-4.298c-4.583 0-6.717-.566-8.23-2.182-.654-.699-1.485-.97-3.063-1.003-3.811-.08-4.938-.758-1.341-.808 3.067-.043 3.181-.086 3.181-1.167 0-1.07-.127-1.121-2.8-1.121-1.54 0-2.93-.202-3.091-.449-.183-.282.86-.449 2.8-.449h3.091v-4.486h-7.468c-6.522 0-7.56.1-8.191.785-.578.627-.769 2.522-.95 9.433-.123 4.756-.352 8.769-.507 8.916-.155.148-.609.15-1.009.002-.62-.226-.727-1.519-.727-8.775 0-4.68.202-9.016.45-9.636.954-2.39 2.222-2.7 11.758-2.871l8.765-.158 6.674 5.975 6.673 5.974.043 10.685c.026 6.552-.145 11.02-.443 11.548-1.137 2.024-2.496 2.219-15.488 2.219-8.167 0-12.353-.16-12.56-.479z" fill="none" stroke="#454c51" stroke-width=".7"/><path d="M179.397 124.929c-2.26-3.33-2.61-4.29-1.873-5.136.873-1.002 1.792-.785 3.29.776l1.369 1.427 1.891-4.007c1.04-2.204 2.268-4.714 2.728-5.578.915-1.717 2.449-2.246 3.389-1.167.48.55.024 1.899-2.543 7.536-1.72 3.777-3.438 7.32-3.818 7.876-1.187 1.736-2.403 1.262-4.433-1.727zM107.884 18.722c-.655-.128-.755-.769-.755-4.827v-4.68h9.633l.153 2.245c.097 1.422-.025 2.244-.331 2.244-.266 0-.829.387-1.25.86-1.024 1.15-.257 2.73 1.325 2.73 1.089 0 1.093.014.276.905-.725.79-1.301.89-4.563.788-2.053-.064-4.073-.183-4.488-.265z" fill="none" stroke="#454c51" stroke-width=".7"/><path d="M105.396 24.66l-1.36-1.163v-6.442c0-6.148-.044-6.474-.981-7.14a3.664 3.664 0 0 0-4.221 0c-.764.543-.982 1.14-.982 2.692 0 1.474-.173 1.994-.662 1.994-.477 0-.663-.494-.663-1.758 0-2.385.331-3.097 1.799-3.868 2.495-1.311 6.207-.387 6.753 1.682.149.565.273 3.692.277 6.948.006 5.607.058 5.958.988 6.62 2.365 1.683 5.202.209 5.202-2.705 0-2.03 1.043-1.871 1.243.19.107 1.1-.165 1.739-1.18 2.77-1.758 1.786-4.25 1.858-6.213.18z" fill="none" stroke="#454c51" stroke-width=".7"/><path d="M95.31 18.571c-1.406-1.428-.127-3.218 2.138-2.99 1.718.172 2.613 1.347 1.903 2.499-.584.948-3.27 1.274-4.04.491z" fill="none" stroke="#454c51" stroke-width=".579"/><path d="M112.582 36.27c-.34-.073-.842-.344-1.114-.603-4.74-4.487-4.97-4.76-4.756-5.652.061-.255.397-.752.747-1.106.404-.409.635-.827.635-1.15 0-1.018 1.27-1.98 2.614-1.98.764 0 1.099.117 1.771.62.456.343.945.576 1.086.52.384-.154 4.556-3.626 4.556-3.792 0-.079-.22-.355-.488-.613a3.88 3.88 0 0 1-.751-1.115c-.235-.576-.228-.72.07-1.35.394-.836 1.273-1.415 2.341-1.544.424-.05 1.063-.3 1.42-.554a2.314 2.314 0 0 1 2.553-.122c.976.562 4.835 4.302 5.148 4.99.404.89.386.968-.451 1.916-.409.462-.743 1.033-.743 1.268 0 .638-.305 1.115-1.049 1.643-.962.682-2.19.596-3.318-.234-.464-.34-.892-.62-.952-.62-.059 0-.982.72-2.051 1.599-1.07.88-2.125 1.746-2.347 1.927l-.403.328.598.644c.767.827 1.056 1.663.809 2.343-.288.788-1.602 1.686-2.469 1.686-.475 0-.932.16-1.318.46-.695.54-1.287.677-2.138.492zm1.555-1.347c.58-.567.417-.967-.919-2.267-3.576-3.48-4.127-3.82-4.945-3.048-.697.659-.471 1.104 1.539 3.028 3.277 3.138 3.394 3.2 4.325 2.287zm2.83-1.053c.72-.632.616-1.168-.442-2.251-.45-.46-.818-.907-.818-.992 0-.2 5.976-5.183 6.222-5.188.103-.002.645.389 1.206.869 1.142.978 1.728 1.089 2.481.47.853-.7.665-1.13-1.39-3.168-4.231-4.2-4.642-4.475-5.673-3.81-.94.605-.883 1.111.263 2.357l.996 1.082-3.114 2.552c-1.713 1.403-3.254 2.551-3.423 2.551-.17 0-.422-.145-.563-.323-.434-.55-1.686-1.42-2.043-1.42-.188 0-.606.246-.929.548-.46.428-.563.651-.475 1.02.065.27 1.195 1.499 2.658 2.89 3.827 3.641 3.995 3.735 5.045 2.813zm9.89-9.505c.41-.221.548-.434.548-.841 0-.436-.306-.836-1.531-2-2.711-2.573-3.311-3.065-3.725-3.059-.542.01-1.243.64-1.243 1.118 0 .557 4.653 5.077 5.226 5.077.098 0 .424-.133.726-.295z" fill="none" stroke="#454c51" stroke-width=".395"/><path d="M96.07 25.181c-.36-.368-.285-.914.17-1.24.91-.652 1.836.406.979 1.116-.516.428-.82.46-1.15.124z" fill="none" stroke="#454c51" stroke-width=".312"/><path d="M118.12 17.486c0-.073.298-.417.662-.763.365-.346.663-.83.663-1.075 0-.672-.697-1.41-1.49-1.58-.498-.106-.653-.234-.529-.437.265-.433 1.76.141 2.302.884.633.867.372 2.082-.571 2.667-.725.449-1.037.54-1.037.304z" fill="none"/><path d="M105.376 69.453a374.132 374.132 0 0 1-4.786-4.824l-1.728-1.794 1.114-1.316 1.113-1.316 2.196 2.326c1.208 1.278 2.389 2.325 2.624 2.325.24 0 .428-3.541.428-8.076v-8.076h4.241v8.076c0 4.442.168 8.076.372 8.076s1.413-1.007 2.686-2.238l2.315-2.237 1.084.97c.597.533 1.085 1.117 1.085 1.298 0 .44-8.94 9.834-9.359 9.834-.18 0-1.704-1.363-3.385-3.028zM146.93 112.116l-4.731-4.782 1.222-1.387c.672-.763 2.866-3.043 4.876-5.066 3.35-3.373 3.71-3.616 4.34-2.917 1.341 1.489 1.279 1.823-.782 4.185-1.145 1.313-1.98 2.544-1.856 2.736.124.191 4.03.348 8.682.348h8.455v3.456l-3.888.288c-2.139.159-6.062.29-8.72.291-2.656.001-4.83.138-4.83.304 0 .166 1.05 1.452 2.335 2.858l2.335 2.555-1.07.957c-.588.526-1.197.956-1.353.956-.156 0-2.413-2.152-5.015-4.782zM106.337 157.66v-8.59l-2.622 2.361-2.622 2.36-1.136-1.016-1.136-1.016 1.477-1.615c.813-.889 3.004-3.167 4.869-5.062l3.392-3.446 4.78 4.87c2.63 2.678 4.78 5.023 4.78 5.211 0 .189-.451.8-1.003 1.36l-1.005 1.017-2.648-2.558-2.649-2.56-.128 8.637-.128 8.637h-4.221v-8.59zM63.712 115.756c-.773-1.123-.752-1.178 1.36-3.413 1.18-1.25 2.145-2.452 2.145-2.672 0-.22-1.239-.4-2.753-.4-1.515 0-5.333-.132-8.484-.294l-5.73-.293v-3.451h8.484c5.81 0 8.483-.154 8.483-.49 0-.269-.99-1.592-2.2-2.941l-2.202-2.453 1.157-1.1 1.156-1.101 4.845 4.935c4.358 4.44 4.783 5.02 4.226 5.769-1.239 1.667-8.765 9.046-9.227 9.046-.26 0-.828-.514-1.26-1.142zM83.007 199.21c-15.998-4.41-29.867-12.203-41.476-23.307-12.384-11.844-21.641-27.43-25.389-42.741l-.686-2.804H27.57l1.246 3.925c7.507 23.652 26.023 42.755 50.055 51.644 2.651.98 5.476 1.92 6.277 2.087.801.168 1.556.55 1.676.848.12.299.16 2.984.086 5.966l-.133 5.422-3.77-1.04zM130.478 194.693l.131-5.656 4.95-1.524c6.496-2 17.022-7.037 22.622-10.826 5.774-3.905 15.849-13.502 19.905-18.961 4.266-5.74 9.272-15.288 11.495-21.924l1.824-5.444h12.04l-.292 1.233c-7.538 31.756-33.447 58.132-66.2 67.395-7.162 2.025-6.631 2.377-6.475-4.293z" fill="none" stroke="#454c51" stroke-width=".7"/><path d="M189.089 85.38c-1.78-5.076-6.25-13.69-9.49-18.283-10.956-15.538-27.591-27.351-45.573-32.362l-3.652-1.018v-4.445c0-4.057.072-4.416.825-4.121 1.81.71 2.538.753 3.857.233.758-.298 1.49-.824 1.63-1.168.517-1.284 15.027 4.488 22.91 9.114 18.74 10.999 33.466 28.362 40.434 47.675 1.024 2.838 2.012 5.816 2.196 6.618l.334 1.458h-12.173l-1.298-3.701z" fill="none"/><path d="M16.315 88.646c0-.24.854-2.912 1.898-5.938 9.89-28.672 34.721-51.264 65.383-59.49l3.417-.917v5.125c0 3.117-.185 5.125-.472 5.125-.259 0-.47.378-.47.84 0 .659-.95 1.155-4.36 2.28-23.756 7.843-43.446 26.59-51.741 49.26l-1.519 4.15h-6.068c-3.608 0-6.068-.176-6.068-.435zM188.84 85.38c-7.953-21.884-25.624-39.612-48.042-48.196-2.692-1.03-6.245-2.222-7.895-2.647l-3-.774V21.805l1.531.272c.843.15 4.389 1.157 7.88 2.24 20.519 6.359 37.795 18.819 50.146 36.167 5.426 7.62 10.38 18.09 13.267 28.036l.293 1.01h-12.671l-1.508-4.15z" fill="none" stroke="#454c51" stroke-width=".7"/><path d="M18.735 83.712c9.745-28.175 32.818-49.895 62.65-58.976 2.01-.611 3.87-1.114 4.134-1.116.663-.006.663 7.532 0 8.94-.398.845-1.336 1.33-5.48 2.836-23.774 8.635-41.96 26.223-50.753 49.085l-1.442 3.75H17.172l1.563-4.52z" fill="#53c0ab" stroke="#53c0ab" stroke-width=".385"/><path d="M190.628 87.75c-.196-.476-.988-2.51-1.761-4.52-6.955-18.079-21.505-33.924-39.635-43.164-4.38-2.233-13.131-5.628-16.597-6.44l-2.02-.472V28c0-2.835.158-5.154.35-5.154.81 0 10.033 2.84 13.632 4.199 23.83 8.994 43.082 27.007 52.736 49.344 1.982 4.585 4.436 11.153 4.436 11.872 0 .2-2.365.354-5.393.354-5.23 0-5.403-.026-5.748-.865zM131.47 194.531l.107-4.853 5.192-1.802c8.929-3.1 17.928-7.582 23.33-11.618 7.107-5.31 15.254-13.373 19.477-19.274 4.184-5.847 9.188-15.851 11.449-22.888l.896-2.788H202.24l-.268 1.442c-1.134 6.1-6.917 19.1-11.68 26.25-12.563 18.862-31.173 32.548-53.081 39.037-2.502.741-4.842 1.348-5.2 1.348-.58 0-.638-.511-.542-4.854zM78.308 196.866c-24.452-8.125-43.978-24.948-55.184-47.546-2.578-5.2-6.355-15.452-6.355-17.252 0-.72.276-.76 5.098-.76h5.098l1.524 4.519c5.732 16.995 17.112 31.602 32.829 42.14 4.768 3.198 13.654 7.511 19.586 9.508L86 189.19v4.905c0 4.42-.067 4.904-.673 4.892-.37-.007-3.529-.962-7.02-2.121z" fill="#53c0ab" stroke="#53c0ab"/><path d="M91.086 191.478c-1.134-.794-1.08-1.52.32-4.324 4.402-8.808 17.625-11.883 27.524-6.4l2.352 1.303 1.799-1.191c.99-.655 1.86-1.127 1.934-1.048.174.185 3.293 10.33 3.293 10.713 0 .159-.65.166-1.443.016-3.64-.688-11.842-2.438-11.98-2.556-.084-.072.608-.811 1.539-1.643l1.691-1.511-3.077-1.476c-2.947-1.414-3.238-1.476-6.923-1.46-3.316.014-4.147.155-6.029 1.023-2.657 1.226-5.495 3.769-6.546 5.866-1.562 3.115-2.789 3.855-4.454 2.688z" fill="none"/><path d="M102.923 208.842c-2.592-.776-3.522-1.192-5.562-2.486l-1.858-1.178-1.441 1.142c-.793.628-1.617 1.142-1.832 1.142-.356 0-3.96-10.408-3.707-10.708.061-.072 3.172.524 6.915 1.326l6.803 1.457-1.678 1.459-1.678 1.459.961.764c1.213.964 5.061 2.272 7.55 2.567 3.594.425 8.914-1.27 11.426-3.64.6-.567 1.783-2.21 2.627-3.65 1.672-2.852 2.215-3.254 3.69-2.728 1.714.611 1.837 1.329.675 3.92-1.432 3.189-4.622 6.201-8.54 8.061-2.896 1.376-3.14 1.423-7.805 1.516-3.184.062-5.401-.08-6.546-.423z" fill="none" stroke="#454c51" stroke-width=".7"/><path d="M103.746 198.295c-4.838-3.751-5.81-5.959-3.486-7.915 1.491-1.254 3.755-1.334 5.596-.196l1.293.799 1.016-.8c1.745-1.372 5.78-.778 6.442.95.89 2.318-.178 4-4.72 7.439l-2.925 2.216-3.216-2.493z" fill="none" stroke="#454c51" stroke-width=".7"/></svg>